<svg xmlns="http://www.w3.org/2000/svg" viewBox="0 0 1200 800" width="1200" height="800">
  <defs>
    <linearGradient id="bgGrad" x1="0%" y1="0%" x2="100%" y2="100%">
      <stop offset="0%" style="stop-color:#0f172a"/>
      <stop offset="100%" style="stop-color:#1e293b"/>
    </linearGradient>
    <linearGradient id="accentGrad" x1="0%" y1="0%" x2="100%" y2="0%">
      <stop offset="0%" style="stop-color:#8b5cf6"/>
      <stop offset="100%" style="stop-color:#d946ef"/>
    </linearGradient>
    <style>
      .heading { fill: #ffffff; font-family: system-ui, sans-serif; font-size: 14px; font-weight: bold; }
      .text-sm { fill: #94a3b8; font-family: system-ui, sans-serif; font-size: 10px; }
      .text-md { fill: #cbd5e1; font-family: system-ui, sans-serif; font-size: 12px; }
      .text-muted { fill: #64748b; font-family: system-ui, sans-serif; font-size: 10px; }
      .annotation { fill: #8b5cf6; font-family: monospace; font-size: 10px; }
      .code { fill: #a5f3fc; font-family: monospace; font-size: 10px; }
    </style>
  </defs>

  <!-- Background -->
  <rect width="1200" height="800" fill="url(#bgGrad)"/>

  <!-- Dot grid pattern -->
  <g opacity="0.05">
    <pattern id="dots" width="30" height="30" patternUnits="userSpaceOnUse">
      <circle cx="15" cy="15" r="1" fill="#fff"/>
    </pattern>
    <rect width="1200" height="800" fill="url(#dots)"/>
  </g>

  <!-- Accent line top -->
  <rect x="0" y="0" width="1200" height="3" fill="url(#accentGrad)"/>

  <!-- Title -->
  <text x="600" y="30" text-anchor="middle" font-family="system-ui, sans-serif" font-size="14" font-weight="600" fill="#64748b" letter-spacing="1">BLOG POST VIEW</text>

  <!-- ========================================== -->
  <!-- MAIN CONTENT AREA -->
  <!-- ========================================== -->

  <!-- Article Container -->
  <rect x="20" y="50" width="580" height="700" rx="8" fill="#1e293b" stroke="#475569"/>

  <!-- Featured Image placeholder -->
  <rect x="30" y="60" width="560" height="120" rx="6" fill="#334155"/>
  <text x="310" y="125" text-anchor="middle" class="text-muted">Featured Image (1200x630)</text>

  <!-- Breadcrumb -->
  <text x="40" y="200" class="text-sm" fill="#8b5cf6">Blog</text>
  <text x="65" y="200" class="text-sm">/</text>
  <text x="75" y="200" class="text-sm" fill="#8b5cf6">Tutorial</text>
  <text x="115" y="200" class="text-sm">/</text>
  <text x="125" y="200" class="text-sm">Getting Started with TypeScript</text>

  <!-- Title -->
  <text x="40" y="235" fill="#fff" font-size="22" font-family="system-ui" font-weight="bold">Getting Started with TypeScript</text>

  <!-- Meta information -->
  <g transform="translate(40, 250)">
    <!-- Author avatar -->
    <circle cx="15" cy="15" r="15" fill="#8b5cf6"/>
    <text x="15" y="20" text-anchor="middle" fill="#fff" font-size="10">JD</text>

    <!-- Author name and date -->
    <text x="40" y="12" class="text-md">John Developer</text>
    <text x="40" y="26" class="text-sm">Jan 15, 2025 • 5 min read • 1.2k views</text>
  </g>

  <!-- Tags -->
  <g transform="translate(40, 295)">
    <rect x="0" y="0" width="65" height="22" rx="11" fill="#8b5cf6" opacity="0.2"/>
    <text x="13" y="15" class="text-sm" fill="#c4b5fd">TypeScript</text>
    <rect x="75" y="0" width="45" height="22" rx="11" fill="#8b5cf6" opacity="0.2"/>
    <text x="85" y="15" class="text-sm" fill="#c4b5fd">React</text>
    <rect x="130" y="0" width="55" height="22" rx="11" fill="#8b5cf6" opacity="0.2"/>
    <text x="140" y="15" class="text-sm" fill="#c4b5fd">Beginner</text>
  </g>

  <!-- Social Share Buttons -->
  <g transform="translate(350, 295)">
    <text x="0" y="15" class="text-sm">Share:</text>
    <rect x="45" y="0" width="30" height="22" rx="4" fill="#1DA1F2"/>
    <text x="55" y="15" fill="#fff" font-size="10">𝕏</text>
    <rect x="80" y="0" width="30" height="22" rx="4" fill="#0A66C2"/>
    <text x="90" y="15" fill="#fff" font-size="10">in</text>
    <rect x="115" y="0" width="30" height="22" rx="4" fill="#1877F2"/>
    <text x="125" y="15" fill="#fff" font-size="10">f</text>
    <rect x="150" y="0" width="30" height="22" rx="4" fill="#FF4500"/>
    <text x="160" y="15" fill="#fff" font-size="10">r/</text>
    <rect x="185" y="0" width="30" height="22" rx="4" fill="#334155"/>
    <text x="195" y="15" class="text-md">✉</text>
  </g>

  <!-- Article content -->
  <rect x="30" y="330" width="560" height="210" rx="6" fill="#0f172a"/>

  <text x="45" y="355" class="text-md">TypeScript is a typed superset of JavaScript that compiles</text>
  <text x="45" y="375" class="text-md">to plain JavaScript. It provides optional static typing,</text>
  <text x="45" y="395" class="text-md">classes, and interfaces.</text>

  <text x="45" y="430" fill="#fff" font-size="16" font-weight="bold">Installation</text>

  <!-- Code block -->
  <rect x="45" y="445" width="530" height="40" rx="6" fill="#334155"/>
  <text x="60" y="462" class="code" fill="#64748b">bash</text>
  <text x="60" y="477" class="code">npm install -g typescript</text>
  <rect x="535" y="450" width="30" height="25" rx="4" fill="#475569"/>
  <text x="543" y="467" class="text-sm">📋</text>

  <text x="45" y="515" class="text-md">Once installed, you can compile TypeScript files using the</text>
  <text x="45" y="535" class="text-md">`tsc` command...</text>

  <!-- Author Profile Card -->
  <rect x="30" y="550" width="560" height="90" rx="8" fill="#0f172a" stroke="#475569"/>

  <!-- Author avatar large -->
  <circle cx="80" cy="595" r="30" fill="#8b5cf6"/>
  <text x="80" y="600" text-anchor="middle" fill="#fff" font-size="16">JD</text>

  <!-- Author info -->
  <text x="125" y="580" fill="#fff" font-size="14" font-weight="bold">John Developer</text>
  <text x="125" y="598" class="text-sm">Senior Developer at TechCorp. Writing about</text>
  <text x="125" y="613" class="text-sm">TypeScript, React, and modern web development.</text>

  <!-- Social links -->
  <g transform="translate(125, 620)">
    <rect x="0" y="0" width="25" height="18" rx="4" fill="#334155"/>
    <text x="8" y="13" class="text-sm">𝕏</text>
    <rect x="30" y="0" width="25" height="18" rx="4" fill="#334155"/>
    <text x="38" y="13" class="text-sm">🔗</text>
    <rect x="60" y="0" width="25" height="18" rx="4" fill="#334155"/>
    <text x="66" y="13" class="text-sm">gh</text>
  </g>

  <!-- Comments section preview -->
  <rect x="30" y="650" width="560" height="90" rx="8" fill="#0f172a" stroke="#475569"/>
  <text x="50" y="675" class="heading">Comments (12)</text>

  <!-- Comment preview -->
  <circle cx="55" cy="705" r="12" fill="#22c55e"/>
  <text x="55" y="709" text-anchor="middle" fill="#fff" font-size="8">SM</text>
  <text x="75" y="700" class="text-sm" fill="#fff">Sarah Martinez</text>
  <text x="75" y="715" class="text-sm">Great article! This helped me understand...</text>
  <text x="520" y="675" class="text-sm" fill="#8b5cf6">View all →</text>

  <!-- ========================================== -->
  <!-- SIDEBAR: TABLE OF CONTENTS -->
  <!-- ========================================== -->
  <rect x="620" y="50" width="260" height="300" rx="8" fill="#1e293b" stroke="#475569"/>

  <text x="640" y="80" class="heading">Table of Contents</text>

  <g transform="translate(640, 100)">
    <text x="0" y="0" class="text-md" fill="#8b5cf6">• Introduction</text>
    <text x="0" y="25" class="text-md">• Installation</text>
    <text x="15" y="45" class="text-sm">- npm method</text>
    <text x="15" y="65" class="text-sm">- yarn method</text>
    <text x="0" y="90" class="text-md">• Basic Types</text>
    <text x="15" y="110" class="text-sm">- string, number, boolean</text>
    <text x="15" y="130" class="text-sm">- arrays and tuples</text>
    <text x="0" y="155" class="text-md">• Interfaces</text>
    <text x="0" y="180" class="text-md">• Functions</text>
    <text x="0" y="205" class="text-md">• Generics</text>
    <text x="0" y="230" class="text-md">• Conclusion</text>
  </g>

  <!-- Progress indicator -->
  <rect x="870" y="80" width="4" height="240" rx="2" fill="#334155"/>
  <rect x="870" y="80" width="4" height="60" rx="2" fill="#8b5cf6"/>
  <text x="860" y="330" class="text-sm" text-anchor="end">25%</text>

  <!-- ========================================== -->
  <!-- SIDEBAR: RELATED POSTS -->
  <!-- ========================================== -->
  <rect x="620" y="370" width="260" height="200" rx="8" fill="#1e293b" stroke="#475569"/>

  <text x="640" y="400" class="heading">Related Posts</text>

  <!-- Related post 1 -->
  <rect x="640" y="415" width="220" height="50" rx="6" fill="#0f172a"/>
  <rect x="650" y="425" width="40" height="30" rx="4" fill="#334155"/>
  <text x="700" y="440" class="text-sm" fill="#fff">React + TypeScript Guide</text>
  <text x="700" y="455" class="text-muted">Dec 20, 2024</text>

  <!-- Related post 2 -->
  <rect x="640" y="475" width="220" height="50" rx="6" fill="#0f172a"/>
  <rect x="650" y="485" width="40" height="30" rx="4" fill="#334155"/>
  <text x="700" y="500" class="text-sm" fill="#fff">Advanced Type Patterns</text>
  <text x="700" y="515" class="text-muted">Jan 5, 2025</text>

  <!-- ========================================== -->
  <!-- MOBILE LAYOUT -->
  <!-- ========================================== -->
  <rect x="900" y="50" width="280" height="640" rx="12" fill="#1e293b" stroke="#475569" stroke-width="2"/>

  <!-- Mobile status bar -->
  <rect x="900" y="50" width="280" height="25" rx="12" fill="#0f172a"/>
  <text x="920" y="67" class="text-sm">9:41</text>
  <text x="1150" y="67" class="text-sm" text-anchor="end">📶 🔋</text>

  <!-- Mobile header -->
  <rect x="910" y="80" width="260" height="40" fill="#1e293b"/>
  <text x="925" y="105" class="text-md">← Back</text>
  <text x="1100" y="105" class="text-sm">Share</text>
  <text x="1140" y="105" class="text-sm">⋮</text>

  <!-- Mobile featured image -->
  <rect x="910" y="125" width="260" height="80" fill="#334155"/>
  <text x="1040" y="170" text-anchor="middle" class="text-muted">Featured</text>

  <!-- Mobile title -->
  <text x="920" y="225" fill="#fff" font-size="14" font-weight="bold">Getting Started with</text>
  <text x="920" y="243" fill="#fff" font-size="14" font-weight="bold">TypeScript</text>

  <!-- Mobile author -->
  <g transform="translate(920, 255)">
    <circle cx="12" cy="12" r="12" fill="#8b5cf6"/>
    <text x="12" y="16" text-anchor="middle" fill="#fff" font-size="8">JD</text>
    <text x="32" y="10" class="text-sm">John Developer</text>
    <text x="32" y="23" class="text-muted">Jan 15 • 5 min</text>
  </g>

  <!-- Mobile tags -->
  <rect x="920" y="285" width="50" height="18" rx="9" fill="#8b5cf6" opacity="0.2"/>
  <text x="930" y="297" class="text-muted" fill="#c4b5fd">TypeScript</text>
  <rect x="975" y="285" width="35" height="18" rx="9" fill="#8b5cf6" opacity="0.2"/>
  <text x="982" y="297" class="text-muted" fill="#c4b5fd">React</text>

  <!-- Mobile content -->
  <rect x="920" y="310" width="250" height="200" rx="6" fill="#0f172a"/>
  <text x="930" y="335" class="text-sm">TypeScript is a typed superset</text>
  <text x="930" y="350" class="text-sm">of JavaScript that compiles to</text>
  <text x="930" y="365" class="text-sm">plain JavaScript...</text>

  <text x="930" y="395" fill="#fff" font-size="12" font-weight="bold">Installation</text>

  <!-- Mobile code block -->
  <rect x="930" y="405" width="230" height="35" rx="4" fill="#334155"/>
  <text x="940" y="427" class="code" font-size="9">npm install -g typescript</text>

  <text x="930" y="465" class="text-sm">Once installed, you can compile</text>
  <text x="930" y="480" class="text-sm">TypeScript files using `tsc`...</text>

  <!-- Mobile floating TOC button -->
  <rect x="1100" y="520" width="60" height="30" rx="15" fill="#8b5cf6"/>
  <text x="1130" y="540" text-anchor="middle" fill="#fff" font-size="10">TOC ▲</text>

  <!-- Mobile share bar -->
  <rect x="920" y="560" width="250" height="40" rx="6" fill="#0f172a"/>
  <rect x="935" y="568" width="35" height="25" rx="4" fill="#1DA1F2"/>
  <text x="947" y="585" fill="#fff" font-size="9">𝕏</text>
  <rect x="980" y="568" width="35" height="25" rx="4" fill="#0A66C2"/>
  <text x="992" y="585" fill="#fff" font-size="9">in</text>
  <rect x="1025" y="568" width="35" height="25" rx="4" fill="#1877F2"/>
  <text x="1037" y="585" fill="#fff" font-size="9">f</text>
  <rect x="1070" y="568" width="35" height="25" rx="4" fill="#334155"/>
  <text x="1082" y="585" class="text-sm">🔗</text>
  <rect x="1115" y="568" width="45" height="25" rx="4" fill="#334155"/>
  <text x="1125" y="585" class="text-sm">💬 12</text>

  <!-- Mobile author card collapsed -->
  <rect x="920" y="610" width="250" height="50" rx="6" fill="#0f172a" stroke="#475569"/>
  <circle cx="950" cy="635" r="15" fill="#8b5cf6"/>
  <text x="950" y="639" text-anchor="middle" fill="#fff" font-size="9">JD</text>
  <text x="975" y="630" class="text-sm" fill="#fff">John Developer</text>
  <text x="975" y="645" class="text-muted">View profile →</text>

  <!-- Home indicator -->
  <rect x="1000" y="670" width="80" height="5" rx="2.5" fill="#475569"/>

  <!-- ========================================== -->
  <!-- ANNOTATIONS -->
  <!-- ========================================== -->
  <text x="20" y="765" class="annotation">FR-001: Social sharing buttons (Twitter, LinkedIn, Facebook, Reddit, Email)</text>
  <text x="20" y="780" class="annotation">FR-003: Author profiles with bio and social links</text>

  <text x="620" y="590" class="annotation">FR-007: Auto-generated TOC</text>
  <text x="620" y="605" class="annotation">with showToc frontmatter flag</text>

  <text x="900" y="710" class="annotation">Mobile: Floating TOC button</text>
  <text x="900" y="725" class="annotation">Collapsible author card</text>
  <text x="900" y="740" class="annotation">44px touch targets</text>

  <!-- Divider -->
  <line x1="890" y1="50" x2="890" y2="700" stroke="#475569" stroke-dasharray="5,5" opacity="0.5"/>

</svg>
