<svg xmlns="http://www.w3.org/2000/svg" viewBox="0 0 1200 900" width="1200" height="900">
  <defs>
    <linearGradient id="bgGrad" x1="0%" y1="0%" x2="100%" y2="100%">
      <stop offset="0%" style="stop-color:#0f172a"/>
      <stop offset="100%" style="stop-color:#1e293b"/>
    </linearGradient>
    <linearGradient id="accentGrad" x1="0%" y1="0%" x2="100%" y2="0%">
      <stop offset="0%" style="stop-color:#8b5cf6"/>
      <stop offset="100%" style="stop-color:#d946ef"/>
    </linearGradient>
    <style>
      .heading { fill: #ffffff; font-family: system-ui, sans-serif; font-size: 14px; font-weight: bold; }
      .text-sm { fill: #94a3b8; font-family: system-ui, sans-serif; font-size: 10px; }
      .text-md { fill: #cbd5e1; font-family: system-ui, sans-serif; font-size: 12px; }
      .text-muted { fill: #64748b; font-family: system-ui, sans-serif; font-size: 10px; }
      .annotation { fill: #8b5cf6; font-family: monospace; font-size: 9px; }
    </style>
  </defs>

  <!-- Background -->
  <rect width="1200" height="900" fill="url(#bgGrad)"/>

  <!-- Dot grid pattern -->
  <g opacity="0.03">
    <pattern id="dots" width="30" height="30" patternUnits="userSpaceOnUse">
      <circle cx="15" cy="15" r="1" fill="#fff"/>
    </pattern>
    <rect width="1200" height="900" fill="url(#dots)"/>
  </g>

  <!-- Accent line top -->
  <rect x="0" y="0" width="1200" height="3" fill="url(#accentGrad)"/>

  <!-- Title -->
  <text x="600" y="25" text-anchor="middle" font-family="system-ui, sans-serif" font-size="12" font-weight="600" fill="#64748b" letter-spacing="2">CALENDAR VIEW - SCHEDULING EMBED</text>

  <!-- ==================== DESKTOP VIEW (Left) ==================== -->
  <g transform="translate(30, 45)">
    <!-- Desktop label -->
    <text x="350" y="0" text-anchor="middle" class="text-muted">Desktop (1024px+)</text>

    <!-- Main Container -->
    <rect x="0" y="15" width="700" height="560" rx="8" fill="#1e293b" stroke="#475569" stroke-width="1"/>

    <!-- Page Header -->
    <rect x="0" y="15" width="700" height="80" rx="8" fill="#334155"/>
    <rect x="0" y="87" width="700" height="8" fill="#334155"/>
    <text x="30" y="55" class="heading" font-size="20">Schedule a Meeting</text>
    <text x="30" y="78" class="text-md">Book a time that works for you. We'll send a calendar invitation.</text>

    <!-- Utility Icons Group -->
    <g transform="translate(430, 47)">
      <g transform="translate(0, 0)">
        <path d="M7 2v6m0 0L4.5 5.5M7 8l2.5-2.5M3 11h8" stroke="#94a3b8" stroke-width="1.2" stroke-linecap="round" stroke-linejoin="round" fill="none"/>
      </g>
      <g transform="translate(20, 0)">
        <path d="M2 3h2m3 0h3M2 7h4m3 0h1M2 11h1m3 0h4" stroke="#94a3b8" stroke-width="1.2" stroke-linecap="round"/>
        <circle cx="5.5" cy="3" r="1.2" fill="#94a3b8"/>
        <circle cx="7.5" cy="7" r="1.2" fill="#94a3b8"/>
        <circle cx="4.5" cy="11" r="1.2" fill="#94a3b8"/>
      </g>
      <g transform="translate(40, 0)">
        <path d="M1 7s2-4 6-4 6 4 6 4-2 4-6 4-6-4-6-4z" stroke="#94a3b8" stroke-width="1.2" fill="none"/>
        <circle cx="7" cy="7" r="2" fill="#94a3b8"/>
      </g>
      <g transform="translate(60, 0)">
        <rect x="2" y="1" width="10" height="12" rx="1.5" stroke="#94a3b8" stroke-width="1.2" fill="none"/>
        <path d="M4.5 4h5M4.5 7h5M4.5 10h3" stroke="#94a3b8" stroke-width="1.2" stroke-linecap="round"/>
      </g>
    </g>

    <!-- Provider Toggle -->
    <g transform="translate(520, 40)">
      <rect x="0" y="0" width="160" height="32" rx="6" fill="#0f172a"/>
      <rect x="4" y="4" width="75" height="24" rx="4" fill="#635bff"/>
      <text x="42" y="22" text-anchor="middle" fill="#fff" font-size="9" font-weight="600">Calendly</text>
      <text x="120" y="22" text-anchor="middle" class="text-muted" font-size="9">Cal.com</text>
    </g>

    <!-- Calendar Embed Container -->
    <g transform="translate(15, 110)">
      <rect x="0" y="0" width="670" height="450" rx="8" fill="#0f172a" stroke="#475569" stroke-width="1"/>

      <!-- Calendly/Cal.com Embed Header -->
      <rect x="0" y="0" width="670" height="50" rx="8" fill="#1e293b"/>
      <rect x="0" y="42" width="670" height="8" fill="#1e293b"/>

      <!-- User Avatar + Name -->
      <circle cx="40" cy="25" r="18" fill="#8b5cf6"/>
      <text x="40" y="29" text-anchor="middle" fill="#fff" font-size="10" font-weight="bold">JD</text>
      <text x="70" y="22" fill="#fff" font-size="12" font-weight="600">John Doe</text>
      <text x="70" y="38" class="text-muted" font-size="10">30 Minute Meeting</text>

      <!-- Event Type Tabs -->
      <g transform="translate(350, 12)">
        <rect x="0" y="0" width="300" height="28" rx="4" fill="#334155"/>
        <rect x="4" y="4" width="95" height="20" rx="3" fill="#8b5cf6"/>
        <text x="52" y="18" text-anchor="middle" fill="#fff" font-size="9">30 min</text>
        <text x="150" y="18" text-anchor="middle" class="text-muted" font-size="9">60 min</text>
        <text x="248" y="18" text-anchor="middle" class="text-muted" font-size="9">Custom</text>
      </g>

      <!-- Month Navigation -->
      <g transform="translate(20, 65)">
        <rect x="0" y="0" width="200" height="35" rx="4" fill="transparent"/>
        <text x="20" y="24" fill="#fff" font-size="14">January 2025</text>
        <rect x="130" y="5" width="28" height="24" rx="4" fill="#334155"/>
        <text x="144" y="22" text-anchor="middle" fill="#fff" font-size="12">&lt;</text>
        <rect x="162" y="5" width="28" height="24" rx="4" fill="#334155"/>
        <text x="176" y="22" text-anchor="middle" fill="#fff" font-size="12">&gt;</text>
      </g>

      <!-- View Toggle (Month/Week) -->
      <g transform="translate(520, 65)">
        <rect x="0" y="0" width="130" height="28" rx="4" fill="#334155"/>
        <rect x="4" y="4" width="60" height="20" rx="3" fill="#8b5cf6"/>
        <text x="34" y="18" text-anchor="middle" fill="#fff" font-size="9">Month</text>
        <text x="96" y="18" text-anchor="middle" class="text-muted" font-size="9">Week</text>
      </g>

      <!-- Calendar Grid -->
      <g transform="translate(20, 110)">
        <!-- Day Headers -->
        <text x="45" y="15" text-anchor="middle" class="text-muted" font-size="10">SUN</text>
        <text x="135" y="15" text-anchor="middle" class="text-muted" font-size="10">MON</text>
        <text x="225" y="15" text-anchor="middle" class="text-muted" font-size="10">TUE</text>
        <text x="315" y="15" text-anchor="middle" class="text-muted" font-size="10">WED</text>
        <text x="405" y="15" text-anchor="middle" class="text-muted" font-size="10">THU</text>
        <text x="495" y="15" text-anchor="middle" class="text-muted" font-size="10">FRI</text>
        <text x="585" y="15" text-anchor="middle" class="text-muted" font-size="10">SAT</text>

        <!-- Week 1 -->
        <g transform="translate(0, 30)">
          <text x="45" y="20" text-anchor="middle" class="text-muted" font-size="12">29</text>
          <text x="135" y="20" text-anchor="middle" class="text-muted" font-size="12">30</text>
          <text x="225" y="20" text-anchor="middle" class="text-muted" font-size="12">31</text>
          <rect x="278" y="2" width="74" height="30" rx="4" fill="#334155" stroke="#475569" stroke-width="1"/>
          <text x="315" y="22" text-anchor="middle" fill="#fff" font-size="12">1</text>
          <rect x="368" y="2" width="74" height="30" rx="4" fill="#334155" stroke="#475569" stroke-width="1"/>
          <text x="405" y="22" text-anchor="middle" fill="#fff" font-size="12">2</text>
          <rect x="458" y="2" width="74" height="30" rx="4" fill="#334155" stroke="#475569" stroke-width="1"/>
          <text x="495" y="22" text-anchor="middle" fill="#fff" font-size="12">3</text>
          <text x="585" y="20" text-anchor="middle" class="text-muted" font-size="12">4</text>
        </g>

        <!-- Week 2 -->
        <g transform="translate(0, 70)">
          <text x="45" y="20" text-anchor="middle" class="text-muted" font-size="12">5</text>
          <rect x="98" y="2" width="74" height="30" rx="4" fill="#334155" stroke="#475569" stroke-width="1"/>
          <text x="135" y="22" text-anchor="middle" fill="#fff" font-size="12">6</text>
          <rect x="188" y="2" width="74" height="30" rx="4" fill="#8b5cf6"/>
          <text x="225" y="22" text-anchor="middle" fill="#fff" font-size="12" font-weight="bold">7</text>
          <circle cx="240" cy="28" r="4" fill="#22c55e"/>
          <rect x="278" y="2" width="74" height="30" rx="4" fill="#334155" stroke="#475569" stroke-width="1"/>
          <text x="315" y="22" text-anchor="middle" fill="#fff" font-size="12">8</text>
          <rect x="368" y="2" width="74" height="30" rx="4" fill="#334155" stroke="#475569" stroke-width="1"/>
          <text x="405" y="22" text-anchor="middle" fill="#fff" font-size="12">9</text>
          <rect x="458" y="2" width="74" height="30" rx="4" fill="#334155" stroke="#475569" stroke-width="1"/>
          <text x="495" y="22" text-anchor="middle" fill="#fff" font-size="12">10</text>
          <text x="585" y="20" text-anchor="middle" class="text-muted" font-size="12">11</text>
        </g>

        <!-- Week 3 -->
        <g transform="translate(0, 110)">
          <text x="45" y="20" text-anchor="middle" class="text-muted" font-size="12">12</text>
          <rect x="98" y="2" width="74" height="30" rx="4" fill="#334155" stroke="#475569" stroke-width="1"/>
          <text x="135" y="22" text-anchor="middle" fill="#fff" font-size="12">13</text>
          <rect x="188" y="2" width="74" height="30" rx="4" fill="#334155" stroke="#475569" stroke-width="1"/>
          <text x="225" y="22" text-anchor="middle" fill="#fff" font-size="12">14</text>
          <rect x="278" y="2" width="74" height="30" rx="4" fill="#334155" stroke="#475569" stroke-width="1"/>
          <text x="315" y="22" text-anchor="middle" fill="#fff" font-size="12">15</text>
          <rect x="368" y="2" width="74" height="30" rx="4" fill="#334155" stroke="#475569" stroke-width="1"/>
          <text x="405" y="22" text-anchor="middle" fill="#fff" font-size="12">16</text>
          <rect x="458" y="2" width="74" height="30" rx="4" fill="#334155" stroke="#475569" stroke-width="1"/>
          <text x="495" y="22" text-anchor="middle" fill="#fff" font-size="12">17</text>
          <text x="585" y="20" text-anchor="middle" class="text-muted" font-size="12">18</text>
        </g>

        <!-- Week 4 -->
        <g transform="translate(0, 150)">
          <text x="45" y="20" text-anchor="middle" class="text-muted" font-size="12">19</text>
          <rect x="98" y="2" width="74" height="30" rx="4" fill="#334155" stroke="#475569" stroke-width="1"/>
          <text x="135" y="22" text-anchor="middle" fill="#fff" font-size="12">20</text>
          <rect x="188" y="2" width="74" height="30" rx="4" fill="#334155" stroke="#475569" stroke-width="1"/>
          <text x="225" y="22" text-anchor="middle" fill="#fff" font-size="12">21</text>
          <rect x="278" y="2" width="74" height="30" rx="4" fill="#334155" stroke="#475569" stroke-width="1"/>
          <text x="315" y="22" text-anchor="middle" fill="#fff" font-size="12">22</text>
          <rect x="368" y="2" width="74" height="30" rx="4" fill="#334155" stroke="#475569" stroke-width="1"/>
          <text x="405" y="22" text-anchor="middle" fill="#fff" font-size="12">23</text>
          <rect x="458" y="2" width="74" height="30" rx="4" fill="#334155" stroke="#475569" stroke-width="1"/>
          <text x="495" y="22" text-anchor="middle" fill="#fff" font-size="12">24</text>
          <text x="585" y="20" text-anchor="middle" class="text-muted" font-size="12">25</text>
        </g>
      </g>

      <!-- Time Slots Panel (shows when date selected) -->
      <g transform="translate(20, 320)">
        <text x="0" y="15" fill="#fff" font-size="11" font-weight="600">Available Times - Tuesday, Jan 7</text>

        <g transform="translate(0, 25)">
          <rect x="0" y="0" width="100" height="32" rx="4" fill="#334155" stroke="#475569" stroke-width="1"/>
          <text x="50" y="21" text-anchor="middle" class="text-md">9:00 AM</text>

          <rect x="110" y="0" width="100" height="32" rx="4" fill="#334155" stroke="#475569" stroke-width="1"/>
          <text x="160" y="21" text-anchor="middle" class="text-md">9:30 AM</text>

          <rect x="220" y="0" width="100" height="32" rx="4" fill="#334155" stroke="#475569" stroke-width="1"/>
          <text x="270" y="21" text-anchor="middle" class="text-md">10:00 AM</text>

          <rect x="330" y="0" width="100" height="32" rx="4" fill="#8b5cf6"/>
          <text x="380" y="21" text-anchor="middle" fill="#fff" font-weight="600">10:30 AM</text>

          <rect x="440" y="0" width="100" height="32" rx="4" fill="#334155" stroke="#475569" stroke-width="1"/>
          <text x="490" y="21" text-anchor="middle" class="text-md">11:00 AM</text>

          <rect x="550" y="0" width="100" height="32" rx="4" fill="#334155" stroke="#475569" stroke-width="1"/>
          <text x="600" y="21" text-anchor="middle" class="text-md">11:30 AM</text>
        </g>

        <g transform="translate(0, 65)">
          <rect x="0" y="0" width="100" height="32" rx="4" fill="#334155" stroke="#475569" stroke-width="1"/>
          <text x="50" y="21" text-anchor="middle" class="text-md">1:00 PM</text>

          <rect x="110" y="0" width="100" height="32" rx="4" fill="#334155" stroke="#475569" stroke-width="1"/>
          <text x="160" y="21" text-anchor="middle" class="text-md">1:30 PM</text>

          <rect x="220" y="0" width="100" height="32" rx="4" fill="#334155" stroke="#475569" stroke-width="1"/>
          <text x="270" y="21" text-anchor="middle" class="text-md">2:00 PM</text>

          <rect x="330" y="0" width="100" height="32" rx="4" fill="#334155" stroke="#475569" stroke-width="1"/>
          <text x="380" y="21" text-anchor="middle" class="text-md">2:30 PM</text>

          <rect x="440" y="0" width="100" height="32" rx="4" fill="#334155" stroke="#475569" stroke-width="1"/>
          <text x="490" y="21" text-anchor="middle" class="text-md">3:00 PM</text>

          <rect x="550" y="0" width="100" height="32" rx="4" fill="#64748b40"/>
          <text x="600" y="21" text-anchor="middle" class="text-muted">3:30 PM</text>
          <line x1="555" y1="16" x2="645" y2="16" stroke="#64748b" stroke-width="1"/>
        </g>
      </g>

      <!-- Timezone -->
      <g transform="translate(20, 425)">
        <text x="0" y="15" class="text-muted" font-size="9">Timezone: America/New_York (EST)</text>
        <text x="200" y="15" fill="#8b5cf6" font-size="9" text-decoration="underline">Change</text>
      </g>
    </g>
  </g>

  <!-- ==================== MOBILE VIEW (Right) ==================== -->
  <g transform="translate(760, 45)">
    <!-- Mobile label -->
    <text x="200" y="0" text-anchor="middle" class="text-muted">Mobile (390px)</text>

    <!-- Phone Frame -->
    <rect x="0" y="15" width="400" height="700" rx="20" fill="#0f172a" stroke="#475569" stroke-width="2"/>

    <!-- Status Bar -->
    <text x="25" y="38" fill="#fff" font-size="10" font-weight="600">9:41</text>
    <text x="350" y="38" fill="#fff" font-size="10">5G 100%</text>

    <!-- Header -->
    <rect x="10" y="50" width="380" height="55" fill="#1e293b"/>
    <text x="30" y="75" fill="#fff" font-size="14">&lt;</text>
    <text x="200" y="82" text-anchor="middle" class="heading" font-size="14">Schedule</text>

    <!-- Provider Badge -->
    <rect x="290" y="62" width="80" height="24" rx="12" fill="#635bff"/>
    <text x="330" y="78" text-anchor="middle" fill="#fff" font-size="9">Calendly</text>

    <!-- Event Type Card -->
    <g transform="translate(20, 115)">
      <rect x="0" y="0" width="360" height="70" rx="10" fill="#334155"/>
      <circle cx="35" cy="35" r="22" fill="#8b5cf6"/>
      <text x="35" y="40" text-anchor="middle" fill="#fff" font-size="12" font-weight="bold">JD</text>
      <text x="70" y="28" fill="#fff" font-size="12" font-weight="600">John Doe</text>
      <text x="70" y="48" class="text-muted" font-size="10">30 Minute Meeting</text>
      <text x="320" y="40" text-anchor="middle" fill="#8b5cf6" font-size="18">&#x279C;</text>
    </g>

    <!-- Month Selector -->
    <g transform="translate(20, 200)">
      <rect x="0" y="0" width="360" height="40" rx="8" fill="#1e293b"/>
      <text x="30" y="26" fill="#fff" font-size="14">&lt;</text>
      <text x="180" y="27" text-anchor="middle" fill="#fff" font-size="13" font-weight="600">January 2025</text>
      <text x="330" y="26" fill="#fff" font-size="14">&gt;</text>
    </g>

    <!-- Calendar Grid Mobile -->
    <g transform="translate(20, 250)">
      <!-- Day Headers -->
      <text x="26" y="15" text-anchor="middle" class="text-muted" font-size="9">S</text>
      <text x="77" y="15" text-anchor="middle" class="text-muted" font-size="9">M</text>
      <text x="128" y="15" text-anchor="middle" class="text-muted" font-size="9">T</text>
      <text x="180" y="15" text-anchor="middle" class="text-muted" font-size="9">W</text>
      <text x="231" y="15" text-anchor="middle" class="text-muted" font-size="9">T</text>
      <text x="282" y="15" text-anchor="middle" class="text-muted" font-size="9">F</text>
      <text x="333" y="15" text-anchor="middle" class="text-muted" font-size="9">S</text>

      <!-- Week 1 -->
      <g transform="translate(0, 25)">
        <text x="26" y="22" text-anchor="middle" class="text-muted" font-size="11">29</text>
        <text x="77" y="22" text-anchor="middle" class="text-muted" font-size="11">30</text>
        <text x="128" y="22" text-anchor="middle" class="text-muted" font-size="11">31</text>
        <circle cx="180" cy="18" r="16" fill="#334155"/>
        <text x="180" y="22" text-anchor="middle" fill="#fff" font-size="11">1</text>
        <circle cx="231" cy="18" r="16" fill="#334155"/>
        <text x="231" y="22" text-anchor="middle" fill="#fff" font-size="11">2</text>
        <circle cx="282" cy="18" r="16" fill="#334155"/>
        <text x="282" y="22" text-anchor="middle" fill="#fff" font-size="11">3</text>
        <text x="333" y="22" text-anchor="middle" class="text-muted" font-size="11">4</text>
      </g>

      <!-- Week 2 -->
      <g transform="translate(0, 65)">
        <text x="26" y="22" text-anchor="middle" class="text-muted" font-size="11">5</text>
        <circle cx="77" cy="18" r="16" fill="#334155"/>
        <text x="77" y="22" text-anchor="middle" fill="#fff" font-size="11">6</text>
        <circle cx="128" cy="18" r="16" fill="#8b5cf6"/>
        <text x="128" y="22" text-anchor="middle" fill="#fff" font-size="11" font-weight="bold">7</text>
        <circle cx="180" cy="18" r="16" fill="#334155"/>
        <text x="180" y="22" text-anchor="middle" fill="#fff" font-size="11">8</text>
        <circle cx="231" cy="18" r="16" fill="#334155"/>
        <text x="231" y="22" text-anchor="middle" fill="#fff" font-size="11">9</text>
        <circle cx="282" cy="18" r="16" fill="#334155"/>
        <text x="282" y="22" text-anchor="middle" fill="#fff" font-size="11">10</text>
        <text x="333" y="22" text-anchor="middle" class="text-muted" font-size="11">11</text>
      </g>

      <!-- Week 3 -->
      <g transform="translate(0, 105)">
        <text x="26" y="22" text-anchor="middle" class="text-muted" font-size="11">12</text>
        <circle cx="77" cy="18" r="16" fill="#334155"/>
        <text x="77" y="22" text-anchor="middle" fill="#fff" font-size="11">13</text>
        <circle cx="128" cy="18" r="16" fill="#334155"/>
        <text x="128" y="22" text-anchor="middle" fill="#fff" font-size="11">14</text>
        <circle cx="180" cy="18" r="16" fill="#334155"/>
        <text x="180" y="22" text-anchor="middle" fill="#fff" font-size="11">15</text>
        <circle cx="231" cy="18" r="16" fill="#334155"/>
        <text x="231" y="22" text-anchor="middle" fill="#fff" font-size="11">16</text>
        <circle cx="282" cy="18" r="16" fill="#334155"/>
        <text x="282" y="22" text-anchor="middle" fill="#fff" font-size="11">17</text>
        <text x="333" y="22" text-anchor="middle" class="text-muted" font-size="11">18</text>
      </g>
    </g>

    <!-- Time Slots Mobile -->
    <g transform="translate(20, 420)">
      <text x="0" y="15" fill="#fff" font-size="11" font-weight="600">Select a Time</text>
      <text x="280" y="15" class="text-muted" font-size="9">Tue, Jan 7</text>

      <g transform="translate(0, 25)">
        <rect x="0" y="0" width="110" height="40" rx="6" fill="#334155"/>
        <text x="55" y="25" text-anchor="middle" class="text-md">9:00 AM</text>

        <rect x="120" y="0" width="110" height="40" rx="6" fill="#334155"/>
        <text x="175" y="25" text-anchor="middle" class="text-md">9:30 AM</text>

        <rect x="240" y="0" width="120" height="40" rx="6" fill="#8b5cf6"/>
        <text x="300" y="25" text-anchor="middle" fill="#fff" font-weight="600">10:00 AM</text>
      </g>

      <g transform="translate(0, 75)">
        <rect x="0" y="0" width="110" height="40" rx="6" fill="#334155"/>
        <text x="55" y="25" text-anchor="middle" class="text-md">10:30 AM</text>

        <rect x="120" y="0" width="110" height="40" rx="6" fill="#334155"/>
        <text x="175" y="25" text-anchor="middle" class="text-md">11:00 AM</text>

        <rect x="240" y="0" width="120" height="40" rx="6" fill="#334155"/>
        <text x="300" y="25" text-anchor="middle" class="text-md">11:30 AM</text>
      </g>

      <g transform="translate(0, 125)">
        <rect x="0" y="0" width="110" height="40" rx="6" fill="#334155"/>
        <text x="55" y="25" text-anchor="middle" class="text-md">1:00 PM</text>

        <rect x="120" y="0" width="110" height="40" rx="6" fill="#334155"/>
        <text x="175" y="25" text-anchor="middle" class="text-md">1:30 PM</text>

        <rect x="240" y="0" width="120" height="40" rx="6" fill="#334155"/>
        <text x="300" y="25" text-anchor="middle" class="text-md">2:00 PM</text>
      </g>
    </g>

    <!-- Confirm Button -->
    <g transform="translate(20, 620)">
      <rect x="0" y="0" width="360" height="50" rx="8" fill="url(#accentGrad)"/>
      <text x="180" y="32" text-anchor="middle" fill="#fff" font-size="14" font-weight="600">Confirm - 10:00 AM</text>
    </g>

    <!-- Bottom Nav Bar -->
    <rect x="10" y="690" width="380" height="25" rx="10" fill="#1e293b"/>
    <line x1="200" y1="700" x2="200" y2="710" stroke="#475569" stroke-width="3" stroke-linecap="round"/>
  </g>

  <!-- ==================== ANNOTATIONS ==================== -->

  <!-- Row 1: Desktop feature annotations (6 boxes spread across full width) -->
  <g transform="translate(30, 625)">
    <rect x="0" y="0" width="170" height="48" rx="4" fill="#8b5cf610" stroke="#8b5cf6" stroke-width="1" stroke-dasharray="3,3"/>
    <text x="10" y="16" class="annotation">Provider Abstraction</text>
    <text x="10" y="30" class="text-muted" font-size="8">Calendly + Cal.com</text>
    <text x="10" y="42" class="text-muted" font-size="8">embed support</text>
  </g>

  <g transform="translate(210, 625)">
    <rect x="0" y="0" width="170" height="48" rx="4" fill="#8b5cf610" stroke="#8b5cf6" stroke-width="1" stroke-dasharray="3,3"/>
    <text x="10" y="16" class="annotation">Theme-Aware</text>
    <text x="10" y="30" class="text-muted" font-size="8">Auto dark/light from</text>
    <text x="10" y="42" class="text-muted" font-size="8">data-theme attribute</text>
  </g>

  <g transform="translate(390, 625)">
    <rect x="0" y="0" width="170" height="48" rx="4" fill="#8b5cf610" stroke="#8b5cf6" stroke-width="1" stroke-dasharray="3,3"/>
    <text x="10" y="16" class="annotation">Event Types</text>
    <text x="10" y="30" class="text-muted" font-size="8">30min, 60min, custom</text>
    <text x="10" y="42" class="text-muted" font-size="8">configurable durations</text>
  </g>

  <g transform="translate(570, 625)">
    <rect x="0" y="0" width="150" height="48" rx="4" fill="#8b5cf610" stroke="#8b5cf6" stroke-width="1" stroke-dasharray="3,3"/>
    <text x="10" y="16" class="annotation">GDPR Consent</text>
    <text x="10" y="30" class="text-muted" font-size="8">Functional consent</text>
    <text x="10" y="42" class="text-muted" font-size="8">before embed load</text>
  </g>

  <!-- Row 2: Additional features -->
  <g transform="translate(30, 690)">
    <rect x="0" y="0" width="170" height="48" rx="4" fill="#8b5cf610" stroke="#8b5cf6" stroke-width="1" stroke-dasharray="3,3"/>
    <text x="10" y="16" class="annotation">UTM Analytics</text>
    <text x="10" y="30" class="text-muted" font-size="8">source, medium, campaign</text>
    <text x="10" y="42" class="text-muted" font-size="8">tracked for attribution</text>
  </g>

  <g transform="translate(210, 690)">
    <rect x="0" y="0" width="170" height="48" rx="4" fill="#8b5cf610" stroke="#8b5cf6" stroke-width="1" stroke-dasharray="3,3"/>
    <text x="10" y="16" class="annotation">Timezone Support</text>
    <text x="10" y="30" class="text-muted" font-size="8">Auto-detect user TZ</text>
    <text x="10" y="42" class="text-muted" font-size="8">with manual override</text>
  </g>

  <!-- Mobile annotations -->
  <g transform="translate(760, 770)">
    <rect x="0" y="0" width="180" height="48" rx="4" fill="#8b5cf610" stroke="#8b5cf6" stroke-width="1" stroke-dasharray="3,3"/>
    <text x="10" y="16" class="annotation">Mobile: Responsive</text>
    <text x="10" y="30" class="text-muted" font-size="8">Stacked layout with</text>
    <text x="10" y="42" class="text-muted" font-size="8">scrollable time grid</text>
  </g>

  <g transform="translate(950, 770)">
    <rect x="0" y="0" width="180" height="48" rx="4" fill="#8b5cf610" stroke="#8b5cf6" stroke-width="1" stroke-dasharray="3,3"/>
    <text x="10" y="16" class="annotation">Dynamic Import</text>
    <text x="10" y="30" class="text-muted" font-size="8">SSR disabled, client-only</text>
    <text x="10" y="42" class="text-muted" font-size="8">with loading spinner</text>
  </g>

  <!-- Spec Reference -->
  <text x="600" y="885" text-anchor="middle" class="text-muted" font-size="9">Spec: 080-calendar-integration - Calendly/Cal.com scheduling embed</text>
</svg>
