<svg xmlns="http://www.w3.org/2000/svg" viewBox="0 0 1200 800" width="1200" height="800">
  <defs>
    <linearGradient id="bgGrad" x1="0%" y1="0%" x2="100%" y2="100%">
      <stop offset="0%" style="stop-color:#0f172a"/>
      <stop offset="100%" style="stop-color:#1e293b"/>
    </linearGradient>
    <linearGradient id="accentGrad" x1="0%" y1="0%" x2="100%" y2="0%">
      <stop offset="0%" style="stop-color:#8b5cf6"/>
      <stop offset="100%" style="stop-color:#d946ef"/>
    </linearGradient>
    <linearGradient id="mapGrad" x1="0%" y1="0%" x2="100%" y2="100%">
      <stop offset="0%" style="stop-color:#1a3a2f"/>
      <stop offset="100%" style="stop-color:#0f2922"/>
    </linearGradient>
    <style>
      .heading { fill: #ffffff; font-family: system-ui, sans-serif; font-size: 14px; font-weight: bold; }
      .text-sm { fill: #94a3b8; font-family: system-ui, sans-serif; font-size: 10px; }
      .text-md { fill: #cbd5e1; font-family: system-ui, sans-serif; font-size: 12px; }
      .text-muted { fill: #64748b; font-family: system-ui, sans-serif; font-size: 10px; }
      .annotation { fill: #8b5cf6; font-family: monospace; font-size: 10px; }
    </style>
  </defs>

  <!-- Background -->
  <rect width="1200" height="800" fill="url(#bgGrad)"/>

  <!-- Dot grid pattern -->
  <g opacity="0.05">
    <pattern id="dots" width="30" height="30" patternUnits="userSpaceOnUse">
      <circle cx="15" cy="15" r="1" fill="#fff"/>
    </pattern>
    <rect width="1200" height="800" fill="url(#dots)"/>
  </g>

  <!-- Accent line top -->
  <rect x="0" y="0" width="1200" height="3" fill="url(#accentGrad)"/>

  <!-- Title -->
  <text x="600" y="30" text-anchor="middle" font-family="system-ui, sans-serif" font-size="14" font-weight="600" fill="#64748b" letter-spacing="1">NEARBY SEARCH - LOCATION-BASED RESULTS</text>

  <!-- ==================== DESKTOP SPLIT VIEW ==================== -->
  <text x="20" y="60" class="heading" font-size="12">DESKTOP - SPLIT VIEW (MAP + LIST)</text>

  <!-- Map panel (left side) -->
  <rect x="20" y="75" width="420" height="400" rx="8" fill="url(#mapGrad)" stroke="#475569" stroke-width="1"/>

  <!-- Map grid lines -->
  <g stroke="#2d4a3f" stroke-width="1" opacity="0.5">
    <line x1="20" y1="175" x2="440" y2="175"/>
    <line x1="20" y1="275" x2="440" y2="275"/>
    <line x1="20" y1="375" x2="440" y2="375"/>
    <line x1="120" y1="75" x2="120" y2="475"/>
    <line x1="220" y1="75" x2="220" y2="475"/>
    <line x1="320" y1="75" x2="320" y2="475"/>
  </g>

  <!-- Search radius circle -->
  <circle cx="230" cy="275" r="120" fill="#8b5cf6" opacity="0.1" stroke="#8b5cf6" stroke-width="2" stroke-dasharray="8 4"/>

  <!-- User location -->
  <circle cx="230" cy="275" r="15" fill="#3b82f6" opacity="0.2">
    <animate attributeName="r" values="12;20;12" dur="2s" repeatCount="indefinite"/>
  </circle>
  <circle cx="230" cy="275" r="6" fill="#3b82f6" stroke="#fff" stroke-width="2"/>

  <!-- Result markers (numbered) -->
  <g transform="translate(160, 200)">
    <circle cx="0" cy="0" r="14" fill="#8b5cf6"/>
    <text x="0" y="5" text-anchor="middle" fill="#fff" font-size="11" font-weight="bold">1</text>
  </g>
  <g transform="translate(300, 180)">
    <circle cx="0" cy="0" r="14" fill="#8b5cf6"/>
    <text x="0" y="5" text-anchor="middle" fill="#fff" font-size="11" font-weight="bold">2</text>
  </g>
  <g transform="translate(280, 340)">
    <circle cx="0" cy="0" r="14" fill="#8b5cf6"/>
    <text x="0" y="5" text-anchor="middle" fill="#fff" font-size="11" font-weight="bold">3</text>
  </g>
  <g transform="translate(120, 300)">
    <circle cx="0" cy="0" r="14" fill="#8b5cf6"/>
    <text x="0" y="5" text-anchor="middle" fill="#fff" font-size="11" font-weight="bold">4</text>
  </g>
  <g transform="translate(340, 250)">
    <circle cx="0" cy="0" r="14" fill="#8b5cf6"/>
    <text x="0" y="5" text-anchor="middle" fill="#fff" font-size="11" font-weight="bold">5</text>
  </g>

  <!-- Map controls -->
  <rect x="400" y="90" width="32" height="64" rx="4" fill="#1e293b" stroke="#475569" stroke-width="1"/>
  <text x="416" y="114" text-anchor="middle" fill="#fff" font-size="18" font-weight="bold">+</text>
  <line x1="404" y1="122" x2="428" y2="122" stroke="#475569" stroke-width="1"/>
  <text x="416" y="142" text-anchor="middle" fill="#fff" font-size="18" font-weight="bold">-</text>

  <!-- Radius indicator -->
  <rect x="35" y="445" width="100" height="22" rx="4" fill="#1e293b" stroke="#475569" stroke-width="1"/>
  <text x="85" y="460" text-anchor="middle" class="text-sm">Radius: 2 km</text>

  <!-- ==================== RESULTS LIST (right panel) ==================== -->
  <rect x="460" y="75" width="330" height="400" rx="8" fill="#1e293b" stroke="#475569" stroke-width="1"/>

  <!-- Search header -->
  <rect x="472" y="87" width="306" height="36" rx="6" fill="#334155" stroke="#475569" stroke-width="1"/>
  <circle cx="490" cy="105" r="8" fill="none" stroke="#64748b" stroke-width="1.5"/>
  <line x1="496" y1="111" x2="502" y2="117" stroke="#64748b" stroke-width="1.5"/>
  <text x="510" y="109" class="text-md">coffee shops</text>
  <rect x="690" y="93" width="24" height="24" rx="4" fill="#475569"/>
  <text x="702" y="109" text-anchor="middle" fill="#94a3b8" font-size="12">X</text>
  <rect x="720" y="93" width="50" height="24" rx="4" fill="url(#accentGrad)"/>
  <text x="745" y="109" text-anchor="middle" fill="#fff" font-size="10">Search</text>

  <!-- Filter chips -->
  <g transform="translate(472, 132)">
    <rect x="0" y="0" width="60" height="22" rx="11" fill="#8b5cf6"/>
    <text x="30" y="15" text-anchor="middle" fill="#fff" font-size="9">Open Now</text>
    <rect x="68" y="0" width="50" height="22" rx="11" fill="#334155" stroke="#475569" stroke-width="1"/>
    <text x="93" y="15" text-anchor="middle" class="text-sm">Rating</text>
    <rect x="126" y="0" width="55" height="22" rx="11" fill="#334155" stroke="#475569" stroke-width="1"/>
    <text x="153" y="15" text-anchor="middle" class="text-sm">Distance</text>
    <rect x="189" y="0" width="40" height="22" rx="11" fill="#334155" stroke="#475569" stroke-width="1"/>
    <text x="209" y="15" text-anchor="middle" class="text-sm">Price</text>
  </g>

  <!-- Results count -->
  <text x="472" y="175" class="text-sm" fill="#64748b">5 results within 2 km</text>

  <!-- Result card 1 -->
  <rect x="472" y="185" width="306" height="70" rx="6" fill="#334155"/>
  <circle cx="505" cy="220" r="20" fill="#8b5cf6"/>
  <text x="505" y="226" text-anchor="middle" fill="#fff" font-size="14" font-weight="bold">1</text>
  <text x="538" y="205" class="text-md" fill="#fff">Artisan Coffee House</text>
  <text x="538" y="220" class="text-sm">123 Main St - 0.3 km</text>
  <g transform="translate(538, 230)">
    <polygon points="0,0 5,-8 10,0 5,2" fill="#eab308"/>
    <polygon points="12,0 17,-8 22,0 17,2" fill="#eab308"/>
    <polygon points="24,0 29,-8 34,0 29,2" fill="#eab308"/>
    <polygon points="36,0 41,-8 46,0 41,2" fill="#eab308"/>
    <polygon points="48,0 53,-8 58,0 53,2" fill="#475569"/>
    <text x="66" y="0" class="text-muted">4.5 (234)</text>
  </g>
  <rect x="538" y="240" width="50" height="14" rx="3" fill="#22c55e" opacity="0.2"/>
  <text x="548" y="250" class="text-sm" fill="#22c55e" font-size="8">Open</text>
  <text x="740" y="220" text-anchor="end" class="text-sm" fill="#8b5cf6">$$</text>

  <!-- Result card 2 -->
  <rect x="472" y="262" width="306" height="70" rx="6" fill="#334155"/>
  <circle cx="505" cy="297" r="20" fill="#8b5cf6"/>
  <text x="505" y="303" text-anchor="middle" fill="#fff" font-size="14" font-weight="bold">2</text>
  <text x="538" y="282" class="text-md" fill="#fff">Bean There Cafe</text>
  <text x="538" y="297" class="text-sm">45 Oak Avenue - 0.8 km</text>
  <g transform="translate(538, 307)">
    <polygon points="0,0 5,-8 10,0 5,2" fill="#eab308"/>
    <polygon points="12,0 17,-8 22,0 17,2" fill="#eab308"/>
    <polygon points="24,0 29,-8 34,0 29,2" fill="#eab308"/>
    <polygon points="36,0 41,-8 46,0 41,2" fill="#eab308"/>
    <polygon points="48,0 53,-8 58,0 53,2" fill="#eab308"/>
    <text x="66" y="0" class="text-muted">4.8 (512)</text>
  </g>
  <rect x="538" y="317" width="50" height="14" rx="3" fill="#22c55e" opacity="0.2"/>
  <text x="548" y="327" class="text-sm" fill="#22c55e" font-size="8">Open</text>
  <text x="740" y="297" text-anchor="end" class="text-sm" fill="#8b5cf6">$</text>

  <!-- Result card 3 -->
  <rect x="472" y="339" width="306" height="70" rx="6" fill="#334155"/>
  <circle cx="505" cy="374" r="20" fill="#8b5cf6"/>
  <text x="505" y="380" text-anchor="middle" fill="#fff" font-size="14" font-weight="bold">3</text>
  <text x="538" y="359" class="text-md" fill="#fff">Espresso Express</text>
  <text x="538" y="374" class="text-sm">789 Park Road - 1.2 km</text>
  <g transform="translate(538, 384)">
    <polygon points="0,0 5,-8 10,0 5,2" fill="#eab308"/>
    <polygon points="12,0 17,-8 22,0 17,2" fill="#eab308"/>
    <polygon points="24,0 29,-8 34,0 29,2" fill="#eab308"/>
    <polygon points="36,0 41,-8 46,0 41,2" fill="#475569"/>
    <polygon points="48,0 53,-8 58,0 53,2" fill="#475569"/>
    <text x="66" y="0" class="text-muted">3.2 (89)</text>
  </g>
  <rect x="538" y="394" width="50" height="14" rx="3" fill="#ef4444" opacity="0.2"/>
  <text x="548" y="404" class="text-sm" fill="#ef4444" font-size="8">Closed</text>
  <text x="740" y="374" text-anchor="end" class="text-sm" fill="#8b5cf6">$$$</text>

  <!-- Scroll indicator -->
  <rect x="772" y="420" width="4" height="50" rx="2" fill="#475569"/>
  <rect x="772" y="420" width="4" height="25" rx="2" fill="#8b5cf6"/>

  <!-- ==================== MOBILE VIEW ==================== -->
  <text x="820" y="60" class="heading" font-size="12">MOBILE - LIST VIEW</text>

  <!-- Phone frame -->
  <rect x="820" y="75" width="180" height="380" rx="20" fill="#0f172a" stroke="#475569" stroke-width="2"/>

  <!-- Status bar -->
  <text x="840" y="96" class="text-muted" font-size="9">9:41</text>
  <text x="980" y="96" text-anchor="end" class="text-muted" font-size="9">100%</text>

  <!-- Header -->
  <rect x="820" y="105" width="180" height="44" fill="#1e293b"/>
  <text x="832" y="131" fill="#94a3b8" font-size="16">&lt;</text>
  <text x="910" y="132" text-anchor="middle" class="heading" font-size="13">Nearby</text>
  <rect x="960" y="117" width="28" height="22" rx="4" fill="#334155"/>
  <text x="974" y="132" text-anchor="middle" fill="#94a3b8" font-size="10">Map</text>

  <!-- Mobile search -->
  <rect x="830" y="157" width="160" height="30" rx="6" fill="#334155" stroke="#475569" stroke-width="1"/>
  <circle cx="846" cy="172" r="6" fill="none" stroke="#64748b" stroke-width="1.5"/>
  <line x1="850" y1="176" x2="855" y2="181" stroke="#64748b" stroke-width="1.5"/>
  <text x="862" y="176" class="text-sm">coffee shops</text>

  <!-- Mobile filter pills -->
  <g transform="translate(830, 194)">
    <rect x="0" y="0" width="50" height="18" rx="9" fill="#8b5cf6"/>
    <text x="25" y="12" text-anchor="middle" fill="#fff" font-size="8">Open</text>
    <rect x="55" y="0" width="45" height="18" rx="9" fill="#334155" stroke="#475569" stroke-width="1"/>
    <text x="78" y="12" text-anchor="middle" fill="#94a3b8" font-size="8">Rating</text>
    <rect x="105" y="0" width="52" height="18" rx="9" fill="#334155" stroke="#475569" stroke-width="1"/>
    <text x="131" y="12" text-anchor="middle" fill="#94a3b8" font-size="8">Distance</text>
  </g>

  <!-- Mobile result 1 -->
  <rect x="830" y="220" width="160" height="58" rx="6" fill="#334155"/>
  <circle cx="852" cy="249" r="12" fill="#8b5cf6"/>
  <text x="852" y="253" text-anchor="middle" fill="#fff" font-size="10" font-weight="bold">1</text>
  <text x="872" y="238" class="text-sm" fill="#fff">Artisan Coffee</text>
  <text x="872" y="252" class="text-muted" font-size="9">0.3 km - Open</text>
  <g transform="translate(872, 262)">
    <polygon points="0,0 4,-6 8,0" fill="#eab308"/>
    <polygon points="10,0 14,-6 18,0" fill="#eab308"/>
    <polygon points="20,0 24,-6 28,0" fill="#eab308"/>
    <polygon points="30,0 34,-6 38,0" fill="#eab308"/>
    <polygon points="40,0 44,-6 48,0" fill="#475569"/>
    <text x="55" y="0" class="text-muted" font-size="8">4.5</text>
  </g>

  <!-- Mobile result 2 -->
  <rect x="830" y="284" width="160" height="58" rx="6" fill="#334155"/>
  <circle cx="852" cy="313" r="12" fill="#8b5cf6"/>
  <text x="852" y="317" text-anchor="middle" fill="#fff" font-size="10" font-weight="bold">2</text>
  <text x="872" y="302" class="text-sm" fill="#fff">Bean There Cafe</text>
  <text x="872" y="316" class="text-muted" font-size="9">0.8 km - Open</text>
  <g transform="translate(872, 326)">
    <polygon points="0,0 4,-6 8,0" fill="#eab308"/>
    <polygon points="10,0 14,-6 18,0" fill="#eab308"/>
    <polygon points="20,0 24,-6 28,0" fill="#eab308"/>
    <polygon points="30,0 34,-6 38,0" fill="#eab308"/>
    <polygon points="40,0 44,-6 48,0" fill="#eab308"/>
    <text x="55" y="0" class="text-muted" font-size="8">4.8</text>
  </g>

  <!-- Mobile result 3 -->
  <rect x="830" y="348" width="160" height="58" rx="6" fill="#334155"/>
  <circle cx="852" cy="377" r="12" fill="#8b5cf6"/>
  <text x="852" y="381" text-anchor="middle" fill="#fff" font-size="10" font-weight="bold">3</text>
  <text x="872" y="366" class="text-sm" fill="#fff">Espresso Express</text>
  <text x="872" y="380" class="text-muted" font-size="9">1.2 km - Closed</text>
  <g transform="translate(872, 390)">
    <polygon points="0,0 4,-6 8,0" fill="#eab308"/>
    <polygon points="10,0 14,-6 18,0" fill="#eab308"/>
    <polygon points="20,0 24,-6 28,0" fill="#eab308"/>
    <polygon points="30,0 34,-6 38,0" fill="#475569"/>
    <polygon points="40,0 44,-6 48,0" fill="#475569"/>
    <text x="55" y="0" class="text-muted" font-size="8">3.2</text>
  </g>

  <!-- Bottom nav hint -->
  <rect x="885" y="435" width="50" height="5" rx="2" fill="#475569"/>

  <!-- ==================== MOBILE MAP VIEW ==================== -->
  <text x="1020" y="60" class="heading" font-size="12">MOBILE - MAP VIEW</text>

  <!-- Phone frame 2 -->
  <rect x="1020" y="75" width="160" height="380" rx="20" fill="#0f172a" stroke="#475569" stroke-width="2"/>

  <!-- Status bar -->
  <text x="1035" y="96" class="text-muted" font-size="9">9:41</text>
  <text x="1165" y="96" text-anchor="end" class="text-muted" font-size="9">100%</text>

  <!-- Header -->
  <rect x="1020" y="105" width="160" height="44" fill="#1e293b"/>
  <text x="1032" y="131" fill="#94a3b8" font-size="16">&lt;</text>
  <text x="1100" y="132" text-anchor="middle" class="heading" font-size="13">Nearby</text>
  <rect x="1145" y="117" width="28" height="22" rx="4" fill="#8b5cf6"/>
  <text x="1159" y="132" text-anchor="middle" fill="#fff" font-size="10">List</text>

  <!-- Full screen map -->
  <rect x="1020" y="149" width="160" height="250" fill="url(#mapGrad)"/>

  <!-- Map grid -->
  <g stroke="#2d4a3f" stroke-width="1" opacity="0.5">
    <line x1="1020" y1="199" x2="1180" y2="199"/>
    <line x1="1020" y1="249" x2="1180" y2="249"/>
    <line x1="1020" y1="299" x2="1180" y2="299"/>
    <line x1="1060" y1="149" x2="1060" y2="399"/>
    <line x1="1100" y1="149" x2="1100" y2="399"/>
    <line x1="1140" y1="149" x2="1140" y2="399"/>
  </g>

  <!-- Radius on mobile map -->
  <circle cx="1100" cy="274" r="60" fill="#8b5cf6" opacity="0.1" stroke="#8b5cf6" stroke-width="1" stroke-dasharray="5 3"/>

  <!-- User location mobile -->
  <circle cx="1100" cy="274" r="10" fill="#3b82f6" opacity="0.2">
    <animate attributeName="r" values="8;14;8" dur="2s" repeatCount="indefinite"/>
  </circle>
  <circle cx="1100" cy="274" r="5" fill="#3b82f6" stroke="#fff" stroke-width="1.5"/>

  <!-- Mobile map markers -->
  <circle cx="1070" cy="230" r="10" fill="#8b5cf6"/>
  <text x="1070" y="234" text-anchor="middle" fill="#fff" font-size="8" font-weight="bold">1</text>
  <circle cx="1130" cy="250" r="10" fill="#8b5cf6"/>
  <text x="1130" y="254" text-anchor="middle" fill="#fff" font-size="8" font-weight="bold">2</text>
  <circle cx="1120" cy="310" r="10" fill="#8b5cf6"/>
  <text x="1120" y="314" text-anchor="middle" fill="#fff" font-size="8" font-weight="bold">3</text>

  <!-- Preview card (bottom sheet) -->
  <rect x="1020" y="399" width="160" height="56" fill="#1e293b"/>
  <rect x="1090" y="404" width="20" height="3" rx="1" fill="#475569"/>

  <circle cx="1042" cy="430" r="12" fill="#8b5cf6"/>
  <text x="1042" y="434" text-anchor="middle" fill="#fff" font-size="10" font-weight="bold">1</text>
  <text x="1062" y="422" class="text-sm" fill="#fff">Artisan Coffee</text>
  <text x="1062" y="436" class="text-muted" font-size="9">0.3 km - Open - 4.5 stars</text>
  <rect x="1135" y="418" width="35" height="22" rx="4" fill="url(#accentGrad)"/>
  <text x="1152" y="432" text-anchor="middle" fill="#fff" font-size="9">Go</text>

  <!-- ==================== EMPTY STATE ==================== -->
  <text x="20" y="510" class="heading" font-size="12">EMPTY &amp; LOADING STATES</text>

  <!-- Empty state -->
  <rect x="20" y="525" width="250" height="160" rx="8" fill="#1e293b" stroke="#475569" stroke-width="1"/>
  <text x="145" y="550" text-anchor="middle" class="text-sm" fill="#64748b">NO RESULTS</text>

  <g transform="translate(145, 595)">
    <circle cx="0" cy="0" r="25" fill="#334155"/>
    <circle cx="0" cy="-8" r="8" fill="none" stroke="#64748b" stroke-width="2"/>
    <line x1="6" y1="-2" x2="14" y2="6" stroke="#64748b" stroke-width="2"/>
    <text x="0" y="18" text-anchor="middle" fill="#64748b" font-size="10">?</text>
  </g>

  <text x="145" y="640" text-anchor="middle" class="text-md">No places found nearby</text>
  <text x="145" y="658" text-anchor="middle" class="text-sm">Try expanding your search radius</text>
  <rect x="85" y="665" width="120" height="28" rx="6" fill="#334155" stroke="#475569" stroke-width="1"/>
  <text x="145" y="683" text-anchor="middle" class="text-sm">Expand to 5 km</text>

  <!-- Loading state -->
  <rect x="290" y="525" width="250" height="160" rx="8" fill="#1e293b" stroke="#475569" stroke-width="1"/>
  <text x="415" y="550" text-anchor="middle" class="text-sm" fill="#64748b">LOADING</text>

  <g transform="translate(415, 595)">
    <circle cx="0" cy="0" r="25" fill="none" stroke="#334155" stroke-width="4"/>
    <circle cx="0" cy="0" r="25" fill="none" stroke="#8b5cf6" stroke-width="4" stroke-dasharray="39 118" stroke-linecap="round">
      <animateTransform attributeName="transform" type="rotate" from="0" to="360" dur="1s" repeatCount="indefinite"/>
    </circle>
  </g>

  <text x="415" y="640" text-anchor="middle" class="text-md">Searching nearby...</text>
  <text x="415" y="658" text-anchor="middle" class="text-sm">Finding places within 2 km</text>

  <!-- Skeleton cards -->
  <rect x="560" y="525" width="250" height="160" rx="8" fill="#1e293b" stroke="#475569" stroke-width="1"/>
  <text x="685" y="550" text-anchor="middle" class="text-sm" fill="#64748b">SKELETON</text>

  <rect x="575" y="565" width="220" height="50" rx="6" fill="#334155">
    <animate attributeName="opacity" values="0.5;1;0.5" dur="1.5s" repeatCount="indefinite"/>
  </rect>
  <circle cx="600" cy="590" r="15" fill="#475569"/>
  <rect x="625" y="575" width="100" height="10" rx="2" fill="#475569"/>
  <rect x="625" y="590" width="70" height="8" rx="2" fill="#475569"/>

  <rect x="575" y="625" width="220" height="50" rx="6" fill="#334155">
    <animate attributeName="opacity" values="0.5;1;0.5" dur="1.5s" repeatCount="indefinite" begin="0.3s"/>
  </rect>
  <circle cx="600" cy="650" r="15" fill="#475569"/>
  <rect x="625" y="635" width="100" height="10" rx="2" fill="#475569"/>
  <rect x="625" y="650" width="70" height="8" rx="2" fill="#475569"/>

  <!-- ==================== ANNOTATIONS ==================== -->
  <rect x="820" y="490" width="360" height="110" rx="4" fill="#8b5cf6" opacity="0.15" stroke="#8b5cf6" stroke-width="1"/>
  <text x="835" y="515" class="annotation">Nominatim geocoding for address search</text>
  <text x="835" y="535" class="annotation">OpenStreetMap tiles (no API key)</text>
  <text x="835" y="555" class="annotation">Haversine formula for distance calc</text>
  <text x="835" y="575" class="annotation">Client-side filtering (open/rating/price)</text>
  <text x="835" y="595" class="annotation">Map markers sync with list numbers</text>

</svg>