<svg xmlns="http://www.w3.org/2000/svg" viewBox="0 0 1200 800" width="1200" height="800">
  <defs>
    <linearGradient id="bgGrad" x1="0%" y1="0%" x2="100%" y2="100%">
      <stop offset="0%" style="stop-color:#0f172a"/>
      <stop offset="100%" style="stop-color:#1e293b"/>
    </linearGradient>
    <linearGradient id="accentGrad" x1="0%" y1="0%" x2="100%" y2="0%">
      <stop offset="0%" style="stop-color:#8b5cf6"/>
      <stop offset="100%" style="stop-color:#d946ef"/>
    </linearGradient>
    <style>
      .heading { fill: #ffffff; font-family: system-ui, sans-serif; font-size: 14px; font-weight: bold; }
      .text-sm { fill: #94a3b8; font-family: system-ui, sans-serif; font-size: 10px; }
      .text-md { fill: #cbd5e1; font-family: system-ui, sans-serif; font-size: 12px; }
      .text-muted { fill: #64748b; font-family: system-ui, sans-serif; font-size: 10px; }
      .annotation { fill: #8b5cf6; font-family: monospace; font-size: 10px; }
      .success { fill: #4ade80; font-family: system-ui, sans-serif; font-size: 10px; }
    </style>
  </defs>

  <!-- Background -->
  <rect width="1200" height="800" fill="url(#bgGrad)"/>

  <!-- Dot grid pattern -->
  <g opacity="0.05">
    <pattern id="dots" width="30" height="30" patternUnits="userSpaceOnUse">
      <circle cx="15" cy="15" r="1" fill="#fff"/>
    </pattern>
    <rect width="1200" height="800" fill="url(#dots)"/>
  </g>

  <!-- Accent line top -->
  <rect x="0" y="0" width="1200" height="3" fill="url(#accentGrad)"/>

  <!-- Title -->
  <text x="600" y="30" text-anchor="middle" font-family="system-ui, sans-serif" font-size="14" font-weight="600" fill="#64748b" letter-spacing="1">PASSWORD RESET FLOW</text>

  <!-- ========================================== -->
  <!-- Step 1: Request Reset -->
  <!-- ========================================== -->
  <text x="200" y="70" text-anchor="middle" class="annotation" font-size="12">STEP 1: REQUEST</text>

  <rect x="50" y="90" width="300" height="320" rx="12" fill="#1e293b" stroke="#475569"/>

  <!-- Lock icon (padlock) -->
  <g transform="translate(200, 140)">
    <!-- Shackle (U-shape) -->
    <path d="M-12,-20 L-12,-8 A12,12 0 0,1 12,-8 L12,-20" fill="none" stroke="#8b5cf6" stroke-width="4" stroke-linecap="round"/>
    <!-- Lock body -->
    <rect x="-18" y="-8" width="36" height="28" rx="4" fill="#334155" stroke="#8b5cf6" stroke-width="2"/>
    <!-- Keyhole -->
    <circle cx="0" cy="4" r="5" fill="#8b5cf6"/>
    <rect x="-2" y="4" width="4" height="10" fill="#8b5cf6"/>
  </g>

  <text x="200" y="190" text-anchor="middle" class="heading" font-size="16">Forgot Password?</text>
  <text x="200" y="215" text-anchor="middle" class="text-sm">Enter your email to receive</text>
  <text x="200" y="230" text-anchor="middle" class="text-sm">a password reset link</text>

  <!-- Email field -->
  <text x="80" y="265" class="text-sm">Email</text>
  <rect x="80" y="275" width="240" height="40" rx="6" fill="#0f172a" stroke="#475569"/>
  <text x="100" y="301" class="text-muted">you@example.com</text>

  <!-- Submit button -->
  <rect x="80" y="335" width="240" height="40" rx="6" fill="#8b5cf6"/>
  <text x="200" y="361" text-anchor="middle" fill="white" font-family="system-ui" font-size="12" font-weight="600">Send Reset Link</text>

  <!-- Back link -->
  <text x="200" y="400" text-anchor="middle" fill="#8b5cf6" font-size="11">← Back to Sign In</text>

  <!-- Arrow -->
  <path d="M360 250 L400 250" stroke="#8b5cf6" stroke-width="2" fill="none"/>
  <path d="M395 245 L405 250 L395 255" fill="#8b5cf6"/>

  <!-- ========================================== -->
  <!-- Step 2: Email Sent Confirmation -->
  <!-- ========================================== -->
  <text x="550" y="70" text-anchor="middle" class="annotation" font-size="12">STEP 2: EMAIL SENT</text>

  <rect x="400" y="90" width="300" height="320" rx="12" fill="#1e293b" stroke="#475569"/>

  <!-- Checkmark icon -->
  <circle cx="550" cy="145" r="30" fill="#22c55e" opacity="0.2" stroke="#22c55e" stroke-width="2"/>
  <path d="M535 145 L545 155 L565 135" stroke="#22c55e" stroke-width="3" fill="none"/>

  <text x="550" y="200" text-anchor="middle" class="heading" font-size="16">Check Your Email</text>
  <text x="550" y="225" text-anchor="middle" class="text-sm">We've sent a password reset</text>
  <text x="550" y="240" text-anchor="middle" class="text-sm">link to your email address</text>

  <rect x="430" y="260" width="240" height="50" rx="6" fill="#0f172a" opacity="0.5"/>
  <text x="550" y="285" text-anchor="middle" class="text-muted">Link expires in 1 hour</text>
  <text x="550" y="300" text-anchor="middle" class="text-muted">Check spam folder if not received</text>

  <!-- Resend -->
  <rect x="430" y="330" width="240" height="36" rx="6" fill="#334155" stroke="#475569"/>
  <text x="550" y="354" text-anchor="middle" class="text-md">Resend Email</text>

  <text x="550" y="400" text-anchor="middle" fill="#8b5cf6" font-size="11">← Back to Sign In</text>

  <!-- Arrow -->
  <path d="M710 250 L750 250" stroke="#8b5cf6" stroke-width="2" fill="none"/>
  <path d="M745 245 L755 250 L745 255" fill="#8b5cf6"/>

  <!-- ========================================== -->
  <!-- Step 3: New Password Form -->
  <!-- ========================================== -->
  <text x="900" y="70" text-anchor="middle" class="annotation" font-size="12">STEP 3: NEW PASSWORD</text>

  <rect x="750" y="90" width="300" height="380" rx="12" fill="#1e293b" stroke="#475569"/>

  <!-- Key icon -->
  <g transform="translate(900, 130)">
    <!-- Key bow (circular handle) -->
    <circle cx="-20" cy="0" r="14" fill="#334155" stroke="#8b5cf6" stroke-width="2"/>
    <circle cx="-20" cy="0" r="6" fill="#1e293b"/>
    <!-- Key shaft -->
    <rect x="-8" y="-3" width="35" height="6" fill="#8b5cf6"/>
    <!-- Key teeth -->
    <rect x="20" y="3" width="4" height="8" fill="#8b5cf6"/>
    <rect x="12" y="3" width="4" height="6" fill="#8b5cf6"/>
  </g>

  <text x="900" y="175" text-anchor="middle" class="heading" font-size="16">Set New Password</text>
  <text x="900" y="195" text-anchor="middle" class="text-sm">Create a new secure password</text>

  <!-- New password -->
  <text x="780" y="225" class="text-sm">New Password</text>
  <rect x="780" y="235" width="240" height="36" rx="6" fill="#0f172a" stroke="#475569"/>
  <text x="800" y="259" class="text-muted">••••••••</text>

  <!-- Password requirements -->
  <rect x="780" y="280" width="240" height="55" rx="4" fill="#0f172a" opacity="0.5"/>
  <text x="795" y="298" class="text-muted" font-size="9">Requirements:</text>
  <text x="795" y="312" class="success" font-size="9">✓ 8+ chars</text>
  <text x="870" y="312" class="text-muted" font-size="9">○ Upper</text>
  <text x="930" y="312" class="text-muted" font-size="9">○ Lower</text>
  <text x="795" y="326" class="text-muted" font-size="9">○ Number</text>
  <text x="870" y="326" class="text-muted" font-size="9">○ Special</text>

  <!-- Confirm password -->
  <text x="780" y="355" class="text-sm">Confirm Password</text>
  <rect x="780" y="365" width="240" height="36" rx="6" fill="#0f172a" stroke="#475569"/>
  <text x="800" y="389" class="text-muted">••••••••</text>

  <!-- Submit -->
  <rect x="780" y="420" width="240" height="40" rx="6" fill="#8b5cf6"/>
  <text x="900" y="446" text-anchor="middle" fill="white" font-family="system-ui" font-size="12" font-weight="600">Update Password</text>

  <!-- Annotations -->
  <rect x="50" y="450" width="250" height="45" rx="4" fill="#8b5cf6" opacity="0.1" stroke="#8b5cf6" stroke-dasharray="4"/>
  <text x="60" y="470" class="annotation">FR-010: Password reset via email</text>
  <text x="60" y="485" class="annotation">FR-018: Link expires after 1 hour</text>

  <rect x="400" y="450" width="250" height="60" rx="4" fill="#8b5cf6" opacity="0.1" stroke="#8b5cf6" stroke-dasharray="4"/>
  <text x="410" y="470" class="annotation">Edge: Email delivery fails</text>
  <text x="410" y="485" class="annotation">→ "Failed to send. Try again."</text>
  <text x="410" y="500" class="annotation">→ Show retry button</text>

  <rect x="750" y="490" width="250" height="60" rx="4" fill="#8b5cf6" opacity="0.1" stroke="#8b5cf6" stroke-dasharray="4"/>
  <text x="760" y="510" class="annotation">FR-003: Same password rules</text>
  <text x="760" y="525" class="annotation">FR-022: Updates existing password</text>
  <text x="760" y="540" class="annotation">→ Redirect to sign-in on success</text>

  <!-- Success state preview -->
  <rect x="750" y="580" width="300" height="100" rx="8" fill="#1e293b" stroke="#22c55e"/>
  <text x="770" y="605" class="annotation" fill="#22c55e">SUCCESS STATE</text>
  <circle cx="900" cy="640" r="20" fill="#22c55e" opacity="0.2" stroke="#22c55e"/>
  <text x="900" y="647" text-anchor="middle" fill="#22c55e" font-size="18">✓</text>
  <text x="900" y="670" text-anchor="middle" class="text-sm">Password updated! Redirecting...</text>

</svg>
