<svg xmlns="http://www.w3.org/2000/svg" viewBox="0 0 1200 900" width="1200" height="900">
  <defs>
    <linearGradient id="bgGrad" x1="0%" y1="0%" x2="100%" y2="100%">
      <stop offset="0%" style="stop-color:#0f172a"/>
      <stop offset="100%" style="stop-color:#1e293b"/>
    </linearGradient>
    <linearGradient id="accentGrad" x1="0%" y1="0%" x2="100%">
      <stop offset="0%" style="stop-color:#8b5cf6"/>
      <stop offset="100%" style="stop-color:#d946ef"/>
    </linearGradient>
    <linearGradient id="goldGrad" x1="0%" y1="0%" x2="100%">
      <stop offset="0%" style="stop-color:#f59e0b"/>
      <stop offset="100%" style="stop-color:#fbbf24"/>
    </linearGradient>
    <style>
      .heading { fill: #ffffff; font-family: system-ui, sans-serif; font-size: 14px; font-weight: bold; }
      .text-sm { fill: #94a3b8; font-family: system-ui, sans-serif; font-size: 10px; }
      .text-md { fill: #cbd5e1; font-family: system-ui, sans-serif; font-size: 12px; }
      .text-muted { fill: #64748b; font-family: system-ui, sans-serif; font-size: 10px; }
      .annotation { fill: #8b5cf6; font-family: monospace; font-size: 9px; }
      .price-large { fill: #ffffff; font-family: system-ui, sans-serif; font-size: 32px; font-weight: bold; }
      .price-small { fill: #94a3b8; font-family: system-ui, sans-serif; font-size: 14px; }
    </style>
  </defs>

  <!-- Background -->
  <rect width="1200" height="900" fill="url(#bgGrad)"/>

  <!-- Dot grid pattern -->
  <g opacity="0.03">
    <pattern id="dots" width="30" height="30" patternUnits="userSpaceOnUse">
      <circle cx="15" cy="15" r="1" fill="#fff"/>
    </pattern>
    <rect width="1200" height="900" fill="url(#dots)"/>
  </g>

  <!-- Accent line top -->
  <rect x="0" y="0" width="1200" height="3" fill="url(#accentGrad)"/>

  <!-- Title -->
  <text x="600" y="25" text-anchor="middle" font-family="system-ui, sans-serif" font-size="12" font-weight="600" fill="#64748b" letter-spacing="2">PRICING PLANS</text>

  <!-- ==================== DESKTOP VIEW (Left) ==================== -->
  <g transform="translate(30, 45)">
    <!-- Desktop label -->
    <text x="350" y="0" text-anchor="middle" class="text-muted">Desktop (1024px+)</text>

    <!-- Pricing Container -->
    <rect x="0" y="15" width="700" height="530" rx="8" fill="#1e293b" stroke="#475569" stroke-width="1"/>

    <!-- Header Section -->
    <text x="350" y="55" text-anchor="middle" class="heading" font-size="20">Choose Your Plan</text>
    <text x="350" y="75" text-anchor="middle" class="text-md">Start free, upgrade when you're ready</text>

    <!-- Billing Toggle -->
    <g transform="translate(260, 90)">
      <rect x="0" y="0" width="180" height="36" rx="18" fill="#0f172a" stroke="#475569" stroke-width="1"/>
      <rect x="4" y="4" width="85" height="28" rx="14" fill="#8b5cf6"/>
      <text x="46" y="24" text-anchor="middle" fill="#fff" font-size="11" font-weight="600">Monthly</text>
      <text x="133" y="24" text-anchor="middle" class="text-muted" font-size="11">Yearly</text>
      <text x="155" y="24" fill="#22c55e" font-size="8">-20%</text>
    </g>

    <!-- Currency Selector -->
    <g transform="translate(460, 90)">
      <rect x="0" y="0" width="80" height="36" rx="6" fill="#0f172a" stroke="#475569" stroke-width="1"/>
      <text x="15" y="23" class="text-md">USD $</text>
      <text x="60" y="23" fill="#64748b" font-size="10">▼</text>
    </g>

    <!-- Pricing Cards Row (y=160 per UX-FEEDBACK fix) -->
    <g transform="translate(20, 160)">

      <!-- FREE Plan -->
      <g transform="translate(0, 0)">
        <rect x="0" y="0" width="210" height="370" rx="12" fill="#334155" stroke="#475569" stroke-width="1"/>

        <!-- Plan Header -->
        <text x="105" y="35" text-anchor="middle" class="heading" font-size="16">Free</text>
        <text x="105" y="55" text-anchor="middle" class="text-muted">For getting started</text>

        <!-- Price -->
        <text x="105" y="100" text-anchor="middle" class="price-large">$0</text>
        <text x="105" y="120" text-anchor="middle" class="price-small">/month</text>

        <!-- Divider -->
        <line x1="20" y1="140" x2="190" y2="140" stroke="#475569" stroke-width="1"/>

        <!-- Features -->
        <text x="20" y="165" fill="#22c55e" font-size="12">✓</text>
        <text x="40" y="165" class="text-md">Up to 10 payments/mo</text>

        <text x="20" y="190" fill="#22c55e" font-size="12">✓</text>
        <text x="40" y="190" class="text-md">Stripe integration</text>

        <text x="20" y="215" fill="#22c55e" font-size="12">✓</text>
        <text x="40" y="215" class="text-md">Basic analytics</text>

        <text x="20" y="240" fill="#22c55e" font-size="12">✓</text>
        <text x="40" y="240" class="text-md">Email notifications</text>

        <text x="20" y="265" fill="#64748b" font-size="12">✗</text>
        <text x="40" y="265" class="text-muted">PayPal support</text>

        <text x="20" y="290" fill="#64748b" font-size="12">✗</text>
        <text x="40" y="290" class="text-muted">Subscription billing</text>

        <text x="20" y="315" fill="#64748b" font-size="12">✗</text>
        <text x="40" y="315" class="text-muted">Priority support</text>

        <!-- CTA Button -->
        <rect x="20" y="335" width="170" height="40" rx="8" fill="#475569" stroke="#64748b" stroke-width="1"/>
        <text x="105" y="360" text-anchor="middle" fill="#fff" font-size="12" font-weight="600">Get Started</text>
      </g>

      <!-- PRO Plan (Featured) -->
      <g transform="translate(225, 0)">
        <!-- Card background first so badge renders on top -->
        <rect x="0" y="0" width="210" height="370" rx="12" fill="#334155" stroke="#8b5cf6" stroke-width="2"/>

        <!-- Popular Badge (after card so it renders on top) -->
        <rect x="60" y="-12" width="90" height="24" rx="12" fill="url(#accentGrad)"/>
        <text x="105" y="5" text-anchor="middle" fill="#fff" font-size="10" font-weight="600">MOST POPULAR</text>

        <!-- Plan Header -->
        <text x="105" y="35" text-anchor="middle" class="heading" font-size="16">Pro</text>
        <text x="105" y="55" text-anchor="middle" class="text-muted">For growing businesses</text>

        <!-- Price -->
        <text x="65" y="100" text-anchor="middle" class="price-large">$29</text>
        <text x="105" y="120" text-anchor="middle" class="price-small">/month</text>

        <!-- Divider -->
        <line x1="20" y1="140" x2="190" y2="140" stroke="#475569" stroke-width="1"/>

        <!-- Features -->
        <text x="20" y="165" fill="#22c55e" font-size="12">✓</text>
        <text x="40" y="165" class="text-md">Up to 1,000 payments/mo</text>

        <text x="20" y="190" fill="#22c55e" font-size="12">✓</text>
        <text x="40" y="190" class="text-md">Stripe + PayPal</text>

        <text x="20" y="215" fill="#22c55e" font-size="12">✓</text>
        <text x="40" y="215" class="text-md">Advanced analytics</text>

        <text x="20" y="240" fill="#22c55e" font-size="12">✓</text>
        <text x="40" y="240" class="text-md">Email + Dashboard alerts</text>

        <text x="20" y="265" fill="#22c55e" font-size="12">✓</text>
        <text x="40" y="265" class="text-md">Subscription billing</text>

        <text x="20" y="290" fill="#22c55e" font-size="12">✓</text>
        <text x="40" y="290" class="text-md">Multi-currency (5)</text>

        <text x="20" y="315" fill="#64748b" font-size="12">✗</text>
        <text x="40" y="315" class="text-muted">Priority support</text>

        <!-- CTA Button -->
        <rect x="20" y="335" width="170" height="40" rx="8" fill="url(#accentGrad)"/>
        <text x="105" y="360" text-anchor="middle" fill="#fff" font-size="12" font-weight="600">Start Pro Trial</text>
      </g>

      <!-- ENTERPRISE Plan -->
      <g transform="translate(450, 0)">
        <rect x="0" y="0" width="210" height="370" rx="12" fill="#334155" stroke="#f59e0b" stroke-width="1"/>

        <!-- Plan Header -->
        <text x="105" y="35" text-anchor="middle" fill="#f59e0b" font-size="16" font-weight="bold">Enterprise</text>
        <text x="105" y="55" text-anchor="middle" class="text-muted">For high-volume needs</text>

        <!-- Price -->
        <text x="65" y="100" text-anchor="middle" class="price-large">$99</text>
        <text x="105" y="120" text-anchor="middle" class="price-small">/month</text>

        <!-- Divider -->
        <line x1="20" y1="140" x2="190" y2="140" stroke="#475569" stroke-width="1"/>

        <!-- Features -->
        <text x="20" y="165" fill="#22c55e" font-size="12">✓</text>
        <text x="40" y="165" class="text-md">Up to 10,000 payments/mo</text>

        <text x="20" y="190" fill="#22c55e" font-size="12">✓</text>
        <text x="40" y="190" class="text-md">All payment providers</text>

        <text x="20" y="215" fill="#22c55e" font-size="12">✓</text>
        <text x="40" y="215" class="text-md">Full analytics suite</text>

        <text x="20" y="240" fill="#22c55e" font-size="12">✓</text>
        <text x="40" y="240" class="text-md">Real-time notifications</text>

        <text x="20" y="265" fill="#22c55e" font-size="12">✓</text>
        <text x="40" y="265" class="text-md">Advanced subscriptions</text>

        <text x="20" y="290" fill="#22c55e" font-size="12">✓</text>
        <text x="40" y="290" class="text-md">All currencies</text>

        <text x="20" y="315" fill="#f59e0b" font-size="12">★</text>
        <text x="40" y="315" fill="#f59e0b" font-size="12">Priority 24/7 support</text>

        <!-- CTA Button -->
        <rect x="20" y="335" width="170" height="40" rx="8" fill="url(#goldGrad)"/>
        <text x="105" y="360" text-anchor="middle" fill="#0f172a" font-size="12" font-weight="600">Contact Sales</text>
      </g>
    </g>
  </g>

  <!-- ==================== MOBILE VIEW (Right) ==================== -->
  <g transform="translate(760, 45)">
    <!-- Mobile label -->
    <text x="200" y="0" text-anchor="middle" class="text-muted">Mobile (390px)</text>

    <!-- Phone Frame -->
    <rect x="0" y="15" width="400" height="700" rx="20" fill="#0f172a" stroke="#475569" stroke-width="2"/>

    <!-- Status Bar -->
    <rect x="10" y="25" width="380" height="24" fill="#0f172a"/>
    <text x="30" y="42" fill="#fff" font-size="10" font-weight="600">9:41</text>
    <text x="350" y="42" fill="#fff" font-size="10">📶 🔋</text>

    <!-- Header -->
    <rect x="10" y="50" width="380" height="50" fill="#1e293b"/>
    <text x="30" y="82" fill="#fff" font-size="14">←</text>
    <text x="200" y="82" text-anchor="middle" class="heading" font-size="14">Pricing</text>

    <!-- Page Title -->
    <text x="200" y="125" text-anchor="middle" class="heading" font-size="16">Choose Your Plan</text>

    <!-- Billing Toggle (Mobile) -->
    <g transform="translate(100, 140)">
      <rect x="0" y="0" width="200" height="40" rx="20" fill="#334155" stroke="#475569" stroke-width="1"/>
      <rect x="4" y="4" width="95" height="32" rx="16" fill="#8b5cf6"/>
      <text x="51" y="26" text-anchor="middle" fill="#fff" font-size="11" font-weight="600">Monthly</text>
      <text x="148" y="26" text-anchor="middle" class="text-muted" font-size="11">Yearly -20%</text>
    </g>

    <!-- Swipeable Plan Card (Pro shown) -->
    <g transform="translate(30, 200)">
      <!-- Card indicators -->
      <circle cx="160" cy="0" r="4" fill="#475569"/>
      <circle cx="180" cy="0" r="5" fill="#8b5cf6"/>
      <circle cx="200" cy="0" r="4" fill="#475569"/>
      <text x="250" y="4" class="text-muted" font-size="9">Swipe for more</text>

      <!-- Popular Badge -->
      <rect x="105" y="10" width="130" height="24" rx="12" fill="url(#accentGrad)"/>
      <text x="170" y="27" text-anchor="middle" fill="#fff" font-size="10" font-weight="600">MOST POPULAR</text>

      <!-- Plan Card -->
      <rect x="0" y="40" width="340" height="380" rx="16" fill="#334155" stroke="#8b5cf6" stroke-width="2"/>

      <!-- Plan Header -->
      <text x="170" y="80" text-anchor="middle" class="heading" font-size="18">Pro</text>
      <text x="170" y="100" text-anchor="middle" class="text-muted">For growing businesses</text>

      <!-- Price -->
      <text x="140" y="150" text-anchor="middle" class="price-large" font-size="40">$29</text>
      <text x="200" y="150" class="price-small" font-size="16">/mo</text>

      <!-- Divider -->
      <line x1="30" y1="175" x2="310" y2="175" stroke="#475569" stroke-width="1"/>

      <!-- Features -->
      <text x="30" y="205" fill="#22c55e" font-size="14">✓</text>
      <text x="55" y="205" class="text-md" font-size="13">Up to 1,000 payments/month</text>

      <text x="30" y="235" fill="#22c55e" font-size="14">✓</text>
      <text x="55" y="235" class="text-md" font-size="13">Stripe + PayPal integration</text>

      <text x="30" y="265" fill="#22c55e" font-size="14">✓</text>
      <text x="55" y="265" class="text-md" font-size="13">Advanced analytics dashboard</text>

      <text x="30" y="295" fill="#22c55e" font-size="14">✓</text>
      <text x="55" y="295" class="text-md" font-size="13">Email + Dashboard notifications</text>

      <text x="30" y="325" fill="#22c55e" font-size="14">✓</text>
      <text x="55" y="325" class="text-md" font-size="13">Subscription billing</text>

      <text x="30" y="355" fill="#22c55e" font-size="14">✓</text>
      <text x="55" y="355" class="text-md" font-size="13">Multi-currency (USD, EUR, GBP...)</text>

      <!-- CTA Button (44px touch target) -->
      <rect x="30" y="380" width="280" height="50" rx="10" fill="url(#accentGrad)"/>
      <text x="170" y="412" text-anchor="middle" fill="#fff" font-size="14" font-weight="600">Start 14-Day Free Trial</text>
    </g>

    <!-- Guarantee Badge -->
    <g transform="translate(80, 630)">
      <rect x="0" y="0" width="240" height="35" rx="8" fill="#22c55e20" stroke="#22c55e" stroke-width="1"/>
      <text x="25" y="23" fill="#22c55e" font-size="14">🛡️</text>
      <text x="50" y="23" fill="#22c55e" font-size="11">30-day money-back guarantee</text>
    </g>

    <!-- Bottom Nav Bar -->
    <rect x="10" y="690" width="380" height="25" rx="10" fill="#1e293b"/>
    <line x1="200" y1="700" x2="200" y2="710" stroke="#475569" stroke-width="3" stroke-linecap="round"/>
  </g>

  <!-- ==================== ANNOTATIONS ==================== -->

  <!-- Row 1: Desktop feature annotations (moved down 60px for better spacing) -->
  <g transform="translate(30, 660)">
    <rect x="0" y="0" width="170" height="50" rx="4" fill="#8b5cf610" stroke="#8b5cf6" stroke-width="1" stroke-dasharray="3,3"/>
    <text x="10" y="16" class="annotation">🔄 Billing Toggle</text>
    <text x="10" y="30" class="text-muted" font-size="8">Monthly/Yearly switch</text>
    <text x="10" y="42" class="text-muted" font-size="8">20% annual discount</text>
  </g>

  <g transform="translate(210, 660)">
    <rect x="0" y="0" width="170" height="50" rx="4" fill="#8b5cf610" stroke="#8b5cf6" stroke-width="1" stroke-dasharray="3,3"/>
    <text x="10" y="16" class="annotation">💱 Multi-Currency</text>
    <text x="10" y="30" class="text-muted" font-size="8">USD, EUR, GBP, CAD, AUD</text>
    <text x="10" y="42" class="text-muted" font-size="8">Per FR-005</text>
  </g>

  <g transform="translate(390, 660)">
    <rect x="0" y="0" width="170" height="50" rx="4" fill="#8b5cf610" stroke="#8b5cf6" stroke-width="1" stroke-dasharray="3,3"/>
    <text x="10" y="16" class="annotation">✅ Feature Comparison</text>
    <text x="10" y="30" class="text-muted" font-size="8">Clear checkmarks for</text>
    <text x="10" y="42" class="text-muted" font-size="8">included/excluded</text>
  </g>

  <g transform="translate(570, 660)">
    <rect x="0" y="0" width="150" height="50" rx="4" fill="#8b5cf610" stroke="#8b5cf6" stroke-width="1" stroke-dasharray="3,3"/>
    <text x="10" y="16" class="annotation">⭐ Featured Plan</text>
    <text x="10" y="30" class="text-muted" font-size="8">Border + badge for</text>
    <text x="10" y="42" class="text-muted" font-size="8">recommended tier</text>
  </g>

  <!-- Row 2: Plan tier annotations (moved down for better spacing) -->
  <g transform="translate(30, 730)">
    <rect x="0" y="0" width="170" height="50" rx="4" fill="#8b5cf610" stroke="#8b5cf6" stroke-width="1" stroke-dasharray="3,3"/>
    <text x="10" y="16" class="annotation">🏢 Enterprise Tier</text>
    <text x="10" y="30" class="text-muted" font-size="8">Gold accent, priority</text>
    <text x="10" y="42" class="text-muted" font-size="8">support, Contact Sales</text>
  </g>

  <!-- Mobile annotations (moved down for consistency) -->
  <g transform="translate(760, 830)">
    <rect x="0" y="0" width="180" height="50" rx="4" fill="#8b5cf610" stroke="#8b5cf6" stroke-width="1" stroke-dasharray="3,3"/>
    <text x="10" y="16" class="annotation">👆 Mobile: Swipeable</text>
    <text x="10" y="30" class="text-muted" font-size="8">Horizontal swipe between</text>
    <text x="10" y="42" class="text-muted" font-size="8">plans, dot indicators</text>
  </g>

  <g transform="translate(950, 830)">
    <rect x="0" y="0" width="180" height="50" rx="4" fill="#8b5cf610" stroke="#8b5cf6" stroke-width="1" stroke-dasharray="3,3"/>
    <text x="10" y="16" class="annotation">🎯 CTA Buttons</text>
    <text x="10" y="30" class="text-muted" font-size="8">50px height mobile</text>
    <text x="10" y="42" class="text-muted" font-size="8">44px min touch target</text>
  </g>

  <!-- Spec Reference -->
  <text x="600" y="885" text-anchor="middle" class="text-muted" font-size="9">Spec: 015-payment-integration • FR-001 to FR-005: Payment tiers, subscriptions, multi-currency</text>
</svg>