<?xml version="1.0" encoding="UTF-8"?>
<svg xmlns="http://www.w3.org/2000/svg" viewBox="0 0 1920 1080" width="1920" height="1080">
  <defs>
    <linearGradient id="bg" x1="0%" y1="0%" x2="0%" y2="100%">
      <stop offset="0%" stop-color="#c7ddf5"/>
      <stop offset="100%" stop-color="#b8d4f0"/>
    </linearGradient>
  </defs>
  <rect width="1920" height="1080" fill="url(#bg)"/>
  <text x="960" y="28" text-anchor="middle" font-family="system-ui, sans-serif" font-size="20" font-weight="bold" fill="#1f2937">WEB3FORMS - SUBMISSION STATES</text>

  <!-- Section labels -->
  <text x="40" y="52" fill="#8b5cf6" font-family="system-ui, sans-serif" font-size="18" font-weight="bold">DESKTOP (16:9)</text>
  <text x="1500" y="52" fill="#d946ef" font-family="system-ui, sans-serif" font-size="15" font-weight="bold">MOBILE</text>

  <!-- DESKTOP (1280x720) -->
  <g id="desktop" transform="translate(40, 60)">
    <rect width="1280" height="720" rx="8" fill="#e8d4b8" stroke="#b8a080"/>
    <use href="includes/header-desktop.svg#desktop-header" x="0" y="0"/>

    <!-- Page Title -->
    <text x="640" y="85" text-anchor="middle" font-family="system-ui, sans-serif" font-size="24" font-weight="bold" fill="#1f2937">Form Submission States</text>
    <text x="640" y="110" text-anchor="middle" font-family="system-ui, sans-serif" font-size="14" fill="#4b5563">User feedback during and after form submission</text>

    <!-- STATE 1: Loading -->
    <g transform="translate(30, 130)">
      <rect width="280" height="250" rx="8" fill="#f5f0e6" stroke="#b8a080"/>
      <text x="140" y="28" text-anchor="middle" font-family="system-ui, sans-serif" font-size="16" font-weight="bold" fill="#1f2937">1. Loading State</text>

      <!-- Form preview -->
      <rect x="20" y="45" width="240" height="36" rx="4" fill="#dcc8a8" stroke="#b8a080"/>
      <text x="30" y="68" fill="#374151" font-family="system-ui, sans-serif" font-size="14">John Doe</text>
      <rect x="20" y="90" width="240" height="36" rx="4" fill="#dcc8a8" stroke="#b8a080"/>
      <text x="30" y="113" fill="#374151" font-family="system-ui, sans-serif" font-size="14">john@example.com</text>
      <rect x="20" y="135" width="240" height="50" rx="4" fill="#dcc8a8" stroke="#b8a080"/>
      <text x="30" y="162" fill="#374151" font-family="system-ui, sans-serif" font-size="14">Hello, I have a question...</text>

      <!-- Disabled button with spinner -->
      <rect x="20" y="195" width="240" height="44" rx="6" fill="#a78bfa"/>
      <circle cx="90" cy="217" r="8" fill="none" stroke="#ffffff" stroke-width="2" stroke-dasharray="25 15"/>
      <text x="150" y="223" text-anchor="middle" fill="#ffffff" font-family="system-ui, sans-serif" font-size="14" font-weight="600">Sending...</text>
    </g>
    <!-- Callout 1 -->
    <circle cx="325" cy="255" r="14" fill="#dc2626"/>
    <text x="325" y="260" text-anchor="middle" fill="#ffffff" font-size="14" font-weight="bold">1</text>

    <!-- STATE 2: Success -->
    <g transform="translate(340, 130)">
      <rect width="280" height="250" rx="8" fill="#f5f0e6" stroke="#b8a080"/>
      <text x="140" y="28" text-anchor="middle" font-family="system-ui, sans-serif" font-size="16" font-weight="bold" fill="#1f2937">2. Success State</text>

      <rect x="20" y="50" width="240" height="140" rx="8" fill="#dcfce7" stroke="#22c55e"/>
      <circle cx="140" cy="95" r="24" fill="#22c55e"/>
      <path d="M 128 95 L 136 103 L 152 87" stroke="#ffffff" stroke-width="3" fill="none" stroke-linecap="round"/>
      <text x="140" y="140" text-anchor="middle" font-family="system-ui, sans-serif" font-size="16" font-weight="bold" fill="#166534">Message Sent!</text>
      <text x="140" y="160" text-anchor="middle" font-family="system-ui, sans-serif" font-size="14" fill="#166534">We'll respond in 24 hours.</text>

      <rect x="30" y="200" width="220" height="44" rx="6" fill="#8b5cf6"/>
      <text x="140" y="228" text-anchor="middle" fill="#ffffff" font-family="system-ui, sans-serif" font-size="14" font-weight="600">Send Another Message</text>
    </g>
    <!-- Callout 2 -->
    <circle cx="635" cy="255" r="14" fill="#dc2626"/>
    <text x="635" y="260" text-anchor="middle" fill="#ffffff" font-size="14" font-weight="bold">2</text>

    <!-- STATE 3: Error -->
    <g transform="translate(650, 130)">
      <rect width="280" height="250" rx="8" fill="#f5f0e6" stroke="#b8a080"/>
      <text x="140" y="28" text-anchor="middle" font-family="system-ui, sans-serif" font-size="16" font-weight="bold" fill="#1f2937">3. Error State</text>

      <rect x="20" y="45" width="240" height="90" rx="8" fill="#fef2f2" stroke="#ef4444"/>
      <circle cx="140" cy="75" r="18" fill="#ef4444"/>
      <text x="140" y="82" text-anchor="middle" fill="#ffffff" font-family="system-ui, sans-serif" font-size="18" font-weight="bold">!</text>
      <text x="140" y="110" text-anchor="middle" font-family="system-ui, sans-serif" font-size="14" font-weight="bold" fill="#991b1b">Submission Failed</text>
      <text x="140" y="128" text-anchor="middle" font-family="system-ui, sans-serif" font-size="14" fill="#991b1b">Network error. Data saved.</text>

      <rect x="20" y="145" width="240" height="32" rx="4" fill="#dcc8a8" stroke="#b8a080"/>
      <text x="30" y="166" fill="#374151" font-family="system-ui, sans-serif" font-size="14">john@example.com (saved)</text>

      <rect x="20" y="190" width="110" height="44" rx="6" fill="#ef4444"/>
      <text x="75" y="217" text-anchor="middle" fill="#ffffff" font-family="system-ui, sans-serif" font-size="14" font-weight="600">Retry</text>
      <rect x="150" y="190" width="110" height="44" rx="6" fill="#f5f0e6" stroke="#6b7280"/>
      <text x="205" y="217" text-anchor="middle" fill="#374151" font-family="system-ui, sans-serif" font-size="14">Cancel</text>
    </g>
    <!-- Callout 3 -->
    <circle cx="945" cy="255" r="14" fill="#dc2626"/>
    <text x="945" y="260" text-anchor="middle" fill="#ffffff" font-size="14" font-weight="bold">3</text>

    <!-- STATE 4: Offline Queue -->
    <g transform="translate(960, 130)">
      <rect width="280" height="250" rx="8" fill="#f5f0e6" stroke="#b8a080"/>
      <text x="140" y="28" text-anchor="middle" font-family="system-ui, sans-serif" font-size="16" font-weight="bold" fill="#1f2937">4. Offline Queue</text>

      <rect x="20" y="45" width="240" height="40" rx="6" fill="#fef3c7" stroke="#f59e0b"/>
      <circle cx="45" cy="65" r="12" fill="#f59e0b"/>
      <text x="45" y="70" text-anchor="middle" fill="#ffffff" font-family="system-ui, sans-serif" font-size="14" font-weight="bold">!</text>
      <text x="70" y="70" fill="#92400e" font-family="system-ui, sans-serif" font-size="14" font-weight="600">You're offline</text>

      <rect x="20" y="100" width="240" height="90" rx="6" fill="#dcc8a8" stroke="#b8a080"/>
      <text x="140" y="125" text-anchor="middle" font-family="system-ui, sans-serif" font-size="14" font-weight="600" fill="#1f2937">Message Queued</text>
      <rect x="85" y="140" width="110" height="28" rx="14" fill="#8b5cf6"/>
      <text x="140" y="159" text-anchor="middle" fill="#ffffff" font-family="system-ui, sans-serif" font-size="14" font-weight="bold">2 pending</text>
      <text x="140" y="185" text-anchor="middle" fill="#374151" font-family="system-ui, sans-serif" font-size="14">Sends when online</text>

      <rect x="30" y="200" width="220" height="44" rx="6" fill="#f5f0e6" stroke="#8b5cf6" stroke-width="2"/>
      <text x="140" y="228" text-anchor="middle" fill="#8b5cf6" font-family="system-ui, sans-serif" font-size="14" font-weight="600">View Queued Messages</text>
    </g>
    <!-- Callout 4 -->
    <circle cx="1255" cy="255" r="14" fill="#dc2626"/>
    <text x="1255" y="260" text-anchor="middle" fill="#ffffff" font-size="14" font-weight="bold">4</text>

    <!-- HONEYPOT ANNOTATION -->
    <g transform="translate(30, 400)">
      <rect width="600" height="90" rx="8" fill="#fdf4ff" stroke="#d946ef" stroke-dasharray="4,2"/>
      <text x="20" y="25" fill="#d946ef" font-family="system-ui, sans-serif" font-size="14" font-weight="bold">Hidden Honeypot Field (Spam Protection)</text>
      <text x="20" y="48" fill="#4b5563" font-family="system-ui, sans-serif" font-size="14">HTML: input type="text" name="botcheck" class="hidden" tabindex="-1"</text>
      <text x="20" y="70" fill="#4b5563" font-family="system-ui, sans-serif" font-size="14">CSS hidden from users; bots auto-fill. Filled = spam, rejected silently.</text>
    </g>
    <!-- Callout 5 -->
    <circle cx="645" cy="445" r="14" fill="#dc2626"/>
    <text x="645" y="450" text-anchor="middle" fill="#ffffff" font-size="14" font-weight="bold">5</text>

    <!-- STATE FLOW DIAGRAM -->
    <g transform="translate(660, 400)">
      <rect width="580" height="90" rx="8" fill="#f0fdf4" stroke="#22c55e"/>
      <text x="20" y="25" fill="#166534" font-family="system-ui, sans-serif" font-size="14" font-weight="bold">State Flow</text>

      <rect x="20" y="45" width="70" height="30" rx="4" fill="#f5f0e6" stroke="#b8a080"/>
      <text x="55" y="65" text-anchor="middle" fill="#374151" font-family="system-ui, sans-serif" font-size="14">Idle</text>
      <text x="105" y="62" fill="#374151" font-family="system-ui, sans-serif" font-size="14">→</text>

      <rect x="120" y="45" width="80" height="30" rx="4" fill="#a78bfa"/>
      <text x="160" y="65" text-anchor="middle" fill="#ffffff" font-family="system-ui, sans-serif" font-size="14">Loading</text>
      <text x="215" y="62" fill="#374151" font-family="system-ui, sans-serif" font-size="14">→</text>

      <circle cx="240" cy="60" r="8" fill="#374151"/>

      <text x="260" y="45" fill="#22c55e" font-family="system-ui, sans-serif" font-size="14">↗</text>
      <rect x="280" y="30" width="80" height="28" rx="4" fill="#dcfce7"/>
      <text x="320" y="48" text-anchor="middle" fill="#166534" font-family="system-ui, sans-serif" font-size="14">Success</text>

      <text x="260" y="78" fill="#ef4444" font-family="system-ui, sans-serif" font-size="14">↘</text>
      <rect x="280" y="60" width="80" height="28" rx="4" fill="#fef2f2"/>
      <text x="320" y="78" text-anchor="middle" fill="#991b1b" font-family="system-ui, sans-serif" font-size="14">Error</text>
      <text x="370" y="78" fill="#ef4444" font-family="system-ui, sans-serif" font-size="14">↺ retry</text>

      <rect x="450" y="45" width="80" height="30" rx="4" fill="#fef3c7"/>
      <text x="490" y="65" text-anchor="middle" fill="#92400e" font-family="system-ui, sans-serif" font-size="14">Offline</text>
    </g>
    <!-- Callout 6 -->
    <circle cx="1255" cy="445" r="14" fill="#dc2626"/>
    <text x="1255" y="450" text-anchor="middle" fill="#ffffff" font-size="14" font-weight="bold">6</text>

    <use href="includes/footer-desktop.svg#site-footer" x="0" y="640"/>
  </g>

  <!-- MOBILE (360x720) -->
  <g id="mobile" transform="translate(1360, 60)">
    <rect width="360" height="720" rx="24" fill="#e8d4b8" stroke="#b8a080"/>
    <use href="includes/header-mobile.svg#mobile-header-group" x="0" y="0"/>

    <!-- Mobile Success State - y starts at 78 -->
    <rect x="16" y="88" width="328" height="400" rx="12" fill="#dcfce7" stroke="#22c55e"/>

    <!-- Success icon -->
    <circle cx="180" cy="180" r="50" fill="#22c55e"/>
    <path d="M 150 180 L 170 200 L 210 160" stroke="#ffffff" stroke-width="6" fill="none" stroke-linecap="round"/>

    <text x="180" y="260" text-anchor="middle" font-family="system-ui, sans-serif" font-size="24" font-weight="bold" fill="#166534">Message Sent!</text>
    <text x="180" y="290" text-anchor="middle" font-family="system-ui, sans-serif" font-size="14" fill="#166534">Thank you for reaching out.</text>
    <text x="180" y="315" text-anchor="middle" font-family="system-ui, sans-serif" font-size="14" fill="#166534">We respond within 24 hours.</text>

    <!-- Confirmation details -->
    <rect x="40" y="340" width="280" height="60" rx="8" fill="#f0fdf4" stroke="#86efac"/>
    <text x="180" y="365" text-anchor="middle" font-family="system-ui, sans-serif" font-size="14" font-weight="600" fill="#166534">Confirmation sent to:</text>
    <text x="180" y="388" text-anchor="middle" font-family="system-ui, sans-serif" font-size="14" fill="#166534">john@example.com</text>

    <!-- Send another button -->
    <rect x="40" y="420" width="280" height="48" rx="8" fill="#8b5cf6"/>
    <text x="180" y="450" text-anchor="middle" fill="#ffffff" font-family="system-ui, sans-serif" font-size="16" font-weight="600">Send Another Message</text>

    <!-- Offline indicator badge -->
    <rect x="16" y="500" width="328" height="48" rx="8" fill="#fef3c7" stroke="#f59e0b"/>
    <circle cx="45" cy="524" r="12" fill="#f59e0b"/>
    <text x="45" y="529" text-anchor="middle" fill="#ffffff" font-family="system-ui, sans-serif" font-size="14" font-weight="bold">!</text>
    <text x="70" y="529" fill="#92400e" font-family="system-ui, sans-serif" font-size="14" font-weight="600">Offline - 1 queued</text>

    <!-- Mobile Callouts -->
    <circle cx="20" cy="270" r="14" fill="#dc2626"/>
    <text x="20" y="275" text-anchor="middle" fill="#ffffff" font-size="14" font-weight="bold">1</text>

    <circle cx="20" cy="445" r="14" fill="#dc2626"/>
    <text x="20" y="450" text-anchor="middle" fill="#ffffff" font-size="14" font-weight="bold">2</text>

    <circle cx="20" cy="524" r="14" fill="#dc2626"/>
    <text x="20" y="529" text-anchor="middle" fill="#ffffff" font-size="14" font-weight="bold">3</text>

    <circle cx="340" cy="180" r="14" fill="#dc2626"/>
    <text x="340" y="185" text-anchor="middle" fill="#ffffff" font-size="14" font-weight="bold">4</text>

    <use href="includes/footer-mobile.svg#mobile-bottom-nav" x="0" y="664"/>
  </g>

  <!-- ANNOTATIONS -->
  <g id="annotations" transform="translate(40, 800)">
    <rect width="1840" height="220" rx="8" fill="#dcc8a8" stroke="#b8a080"/>

    <!-- Group 1: Loading State (US-001) -->
    <g transform="translate(20, 20)">
      <circle cx="14" cy="14" r="14" fill="#dc2626"/>
      <text x="14" y="19" text-anchor="middle" fill="#ffffff" font-size="14" font-weight="bold">1</text>
      <text x="40" y="14" fill="#1f2937" font-family="system-ui, sans-serif" font-size="14" font-weight="bold">Loading State</text>
      <text x="40" y="34" fill="#374151" font-family="system-ui, sans-serif" font-size="14">Button disabled with spinner while sending.</text>
      <text x="40" y="52" fill="#374151" font-family="system-ui, sans-serif" font-size="14">Prevents duplicate submissions (FR-005).</text>
      <a href="#US-001"><rect x="40" y="62" width="55" height="22" rx="4" fill="#0891b2"/><text x="67" y="77" text-anchor="middle" fill="#ffffff" font-size="12">US-001</text></a>
      <a href="#FR-005"><rect x="101" y="62" width="55" height="22" rx="4" fill="#2563eb"/><text x="128" y="77" text-anchor="middle" fill="#ffffff" font-size="12">FR-005</text></a>
      <a href="#FR-014"><rect x="162" y="62" width="55" height="22" rx="4" fill="#2563eb"/><text x="189" y="77" text-anchor="middle" fill="#ffffff" font-size="12">FR-014</text></a>
      <a href="#SC-003"><rect x="223" y="62" width="55" height="22" rx="4" fill="#f97316"/><text x="250" y="77" text-anchor="middle" fill="#ffffff" font-size="12">SC-003</text></a>
    </g>

    <!-- Group 2: Success State (US-001) -->
    <g transform="translate(340, 20)">
      <circle cx="14" cy="14" r="14" fill="#dc2626"/>
      <text x="14" y="19" text-anchor="middle" fill="#ffffff" font-size="14" font-weight="bold">2</text>
      <text x="40" y="14" fill="#1f2937" font-family="system-ui, sans-serif" font-size="14" font-weight="bold">Success State</text>
      <text x="40" y="34" fill="#374151" font-family="system-ui, sans-serif" font-size="14">Checkmark confirms delivery. Option to</text>
      <text x="40" y="52" fill="#374151" font-family="system-ui, sans-serif" font-size="14">send another message (FR-003).</text>
      <a href="#US-001"><rect x="40" y="62" width="55" height="22" rx="4" fill="#0891b2"/><text x="67" y="77" text-anchor="middle" fill="#ffffff" font-size="12">US-001</text></a>
      <a href="#FR-003"><rect x="101" y="62" width="55" height="22" rx="4" fill="#2563eb"/><text x="128" y="77" text-anchor="middle" fill="#ffffff" font-size="12">FR-003</text></a>
      <a href="#FR-022"><rect x="162" y="62" width="55" height="22" rx="4" fill="#2563eb"/><text x="189" y="77" text-anchor="middle" fill="#ffffff" font-size="12">FR-022</text></a>
      <a href="#SC-001"><rect x="223" y="62" width="55" height="22" rx="4" fill="#f97316"/><text x="250" y="77" text-anchor="middle" fill="#ffffff" font-size="12">SC-001</text></a>
    </g>

    <!-- Group 3: Error State (US-001) -->
    <g transform="translate(660, 20)">
      <circle cx="14" cy="14" r="14" fill="#dc2626"/>
      <text x="14" y="19" text-anchor="middle" fill="#ffffff" font-size="14" font-weight="bold">3</text>
      <text x="40" y="14" fill="#1f2937" font-family="system-ui, sans-serif" font-size="14" font-weight="bold">Error State</text>
      <text x="40" y="34" fill="#374151" font-family="system-ui, sans-serif" font-size="14">Clear error message. Input preserved</text>
      <text x="40" y="52" fill="#374151" font-family="system-ui, sans-serif" font-size="14">for retry without re-entering data.</text>
      <a href="#US-001"><rect x="40" y="62" width="55" height="22" rx="4" fill="#0891b2"/><text x="67" y="77" text-anchor="middle" fill="#ffffff" font-size="12">US-001</text></a>
      <a href="#FR-004"><rect x="101" y="62" width="55" height="22" rx="4" fill="#2563eb"/><text x="128" y="77" text-anchor="middle" fill="#ffffff" font-size="12">FR-004</text></a>
      <a href="#FR-015"><rect x="162" y="62" width="55" height="22" rx="4" fill="#2563eb"/><text x="189" y="77" text-anchor="middle" fill="#ffffff" font-size="12">FR-015</text></a>
      <a href="#FR-016"><rect x="223" y="62" width="55" height="22" rx="4" fill="#2563eb"/><text x="250" y="77" text-anchor="middle" fill="#ffffff" font-size="12">FR-016</text></a>
    </g>

    <!-- Group 4: Offline Queue (US-004) -->
    <g transform="translate(980, 20)">
      <circle cx="14" cy="14" r="14" fill="#dc2626"/>
      <text x="14" y="19" text-anchor="middle" fill="#ffffff" font-size="14" font-weight="bold">4</text>
      <text x="40" y="14" fill="#1f2937" font-family="system-ui, sans-serif" font-size="14" font-weight="bold">Offline Queue</text>
      <text x="40" y="34" fill="#374151" font-family="system-ui, sans-serif" font-size="14">Message queued when offline. Shows</text>
      <text x="40" y="52" fill="#374151" font-family="system-ui, sans-serif" font-size="14">pending count. Auto-sends on reconnect.</text>
      <a href="#US-004"><rect x="40" y="62" width="55" height="22" rx="4" fill="#0891b2"/><text x="67" y="77" text-anchor="middle" fill="#ffffff" font-size="12">US-004</text></a>
      <a href="#FR-017"><rect x="101" y="62" width="55" height="22" rx="4" fill="#2563eb"/><text x="128" y="77" text-anchor="middle" fill="#ffffff" font-size="12">FR-017</text></a>
      <a href="#FR-018"><rect x="162" y="62" width="55" height="22" rx="4" fill="#2563eb"/><text x="189" y="77" text-anchor="middle" fill="#ffffff" font-size="12">FR-018</text></a>
      <a href="#FR-019"><rect x="223" y="62" width="55" height="22" rx="4" fill="#2563eb"/><text x="250" y="77" text-anchor="middle" fill="#ffffff" font-size="12">FR-019</text></a>
      <a href="#SC-006"><rect x="284" y="62" width="55" height="22" rx="4" fill="#f97316"/><text x="311" y="77" text-anchor="middle" fill="#ffffff" font-size="12">SC-006</text></a>
    </g>

    <!-- Group 5: Spam Protection (US-003) -->
    <g transform="translate(1360, 20)">
      <circle cx="14" cy="14" r="14" fill="#dc2626"/>
      <text x="14" y="19" text-anchor="middle" fill="#ffffff" font-size="14" font-weight="bold">5</text>
      <text x="40" y="14" fill="#1f2937" font-family="system-ui, sans-serif" font-size="14" font-weight="bold">Honeypot Spam</text>
      <text x="40" y="34" fill="#374151" font-family="system-ui, sans-serif" font-size="14">Hidden field traps bots. Filled = spam</text>
      <text x="40" y="52" fill="#374151" font-family="system-ui, sans-serif" font-size="14">rejected silently. No user friction.</text>
      <a href="#US-003"><rect x="40" y="62" width="55" height="22" rx="4" fill="#0891b2"/><text x="67" y="77" text-anchor="middle" fill="#ffffff" font-size="12">US-003</text></a>
      <a href="#FR-011"><rect x="101" y="62" width="55" height="22" rx="4" fill="#2563eb"/><text x="128" y="77" text-anchor="middle" fill="#ffffff" font-size="12">FR-011</text></a>
      <a href="#FR-012"><rect x="162" y="62" width="55" height="22" rx="4" fill="#2563eb"/><text x="189" y="77" text-anchor="middle" fill="#ffffff" font-size="12">FR-012</text></a>
      <a href="#SC-004"><rect x="223" y="62" width="55" height="22" rx="4" fill="#f97316"/><text x="250" y="77" text-anchor="middle" fill="#ffffff" font-size="12">SC-004</text></a>
    </g>

    <!-- Row 2 -->
    <!-- Group 6: State Flow -->
    <g transform="translate(20, 110)">
      <circle cx="14" cy="14" r="14" fill="#dc2626"/>
      <text x="14" y="19" text-anchor="middle" fill="#ffffff" font-size="14" font-weight="bold">6</text>
      <text x="40" y="14" fill="#1f2937" font-family="system-ui, sans-serif" font-size="14" font-weight="bold">State Flow</text>
      <text x="40" y="34" fill="#374151" font-family="system-ui, sans-serif" font-size="14">Idle → Loading → Success/Error. Error</text>
      <text x="40" y="52" fill="#374151" font-family="system-ui, sans-serif" font-size="14">allows retry; Offline queues message.</text>
      <a href="#FR-002"><rect x="40" y="62" width="55" height="22" rx="4" fill="#2563eb"/><text x="67" y="77" text-anchor="middle" fill="#ffffff" font-size="12">FR-002</text></a>
    </g>
  </g>

  <!-- Key Concepts Row -->
  <text x="40" y="940" font-family="system-ui, sans-serif" font-size="14" font-weight="bold" fill="#374151">Key Concepts:</text>
  <text x="140" y="940" font-family="system-ui, sans-serif" font-size="14" fill="#374151">loading spinner | success confirmation | error with retry | offline queue | honeypot spam protection | state machine</text>

  <!-- SIGNATURE -->
  <text x="40" y="1060" font-family="system-ui, sans-serif" font-size="18" font-weight="bold" fill="#374151">022:02 | Web3Forms Integration | ScriptHammer</text>
</svg>
