<?xml version="1.0" standalone="no"?>
<!DOCTYPE svg PUBLIC "-//W3C//DTD SVG 20010904//EN"
 "http://www.w3.org/TR/2001/REC-SVG-20010904/DTD/svg10.dtd">
<svg version="1.0" xmlns="http://www.w3.org/2000/svg"
 width="400" height="400" viewBox="0 0 400 400"
 preserveAspectRatio="xMidYMid meet">

  <defs>
    <!-- Metallic gradient for main logo (silver steampunk) -->
    <linearGradient id="metalGradient" x1="0%" y1="0%" x2="100%" y2="100%">
      <stop offset="0%" style="stop-color:#E8E8E8;stop-opacity:1" />
      <stop offset="15%" style="stop-color:#D4D4D4;stop-opacity:1" />
      <stop offset="30%" style="stop-color:#C0C0C0;stop-opacity:1" />
      <stop offset="45%" style="stop-color:#A8A8A8;stop-opacity:1" />
      <stop offset="50%" style="stop-color:#909090;stop-opacity:1" />
      <stop offset="55%" style="stop-color:#A8A8A8;stop-opacity:1" />
      <stop offset="70%" style="stop-color:#C0C0C0;stop-opacity:1" />
      <stop offset="85%" style="stop-color:#D4D4D4;stop-opacity:1" />
      <stop offset="100%" style="stop-color:#E8E8E8;stop-opacity:1" />
    </linearGradient>

    <!-- Darker metallic gradient for shadows -->
    <linearGradient id="darkMetalGradient" x1="0%" y1="100%" x2="100%" y2="0%">
      <stop offset="0%" style="stop-color:#707070;stop-opacity:1" />
      <stop offset="50%" style="stop-color:#888888;stop-opacity:1" />
      <stop offset="100%" style="stop-color:#A0A0A0;stop-opacity:1" />
    </linearGradient>

    <!-- Highlight gradient for rings -->
    <linearGradient id="ringGradient" x1="0%" y1="0%" x2="100%" y2="100%">
      <stop offset="0%" style="stop-color:#E8E8E8;stop-opacity:1" />
      <stop offset="20%" style="stop-color:#D0D0D0;stop-opacity:1" />
      <stop offset="35%" style="stop-color:#B0B0B0;stop-opacity:1" />
      <stop offset="50%" style="stop-color:#808080;stop-opacity:1" />
      <stop offset="65%" style="stop-color:#B0B0B0;stop-opacity:1" />
      <stop offset="80%" style="stop-color:#D0D0D0;stop-opacity:1" />
      <stop offset="100%" style="stop-color:#E8E8E8;stop-opacity:1" />
    </linearGradient>

    <!-- Gradient for circle background -->
    <radialGradient id="circleGradient">
      <stop offset="0%" style="stop-color:#1a1a1a;stop-opacity:1" />
      <stop offset="100%" style="stop-color:#000000;stop-opacity:1" />
    </radialGradient>

    <!-- Enhanced shadow filter for metallic effect -->
    <filter id="metalShadow">
      <feGaussianBlur in="SourceAlpha" stdDeviation="2"/>
      <feOffset dx="2" dy="2" result="offsetblur"/>
      <feFlood flood-color="#000000" flood-opacity="0.5"/>
      <feComposite in2="offsetblur" operator="in"/>
      <feMerge>
        <feMergeNode/>
        <feMergeNode in="SourceGraphic"/>
      </feMerge>
    </filter>

    <!-- Inner glow for metallic shine -->
    <filter id="metalGlow">
      <feGaussianBlur stdDeviation="2" result="coloredBlur"/>
      <feComposite in="coloredBlur" in2="SourceGraphic" operator="over"/>
      <feSpecularLighting result="specOut" specularExponent="20" lighting-color="white">
        <fePointLight x="-50" y="30" z="200"/>
      </feSpecularLighting>
      <feComposite in="specOut" in2="SourceAlpha" operator="in" result="specOut2"/>
      <feComposite in="specOut2" in2="SourceGraphic" operator="arithmetic" k1="0" k2="1" k3="1" k4="0"/>
    </filter>

    <!-- Bevel effect for depth -->
    <filter id="bevel">
      <feGaussianBlur in="SourceAlpha" result="blur" stdDeviation="3"/>
      <feSpecularLighting result="specOut" in="blur" specularConstant="1.5" specularExponent="10" lighting-color="white">
        <fePointLight x="-50" y="60" z="200"/>
      </feSpecularLighting>
      <feComposite in="specOut" in2="SourceAlpha" operator="in" result="specOut"/>
      <feComposite in="SourceGraphic" in2="specOut" operator="arithmetic" k1="0" k2="1" k3="1" k4="0"/>
    </filter>

    <!-- Shadow filter for circle -->
    <filter id="circleShadow">
      <feDropShadow dx="0" dy="2" stdDeviation="4"
          flood-color="#8B4513" flood-opacity="0.3"/>
    </filter>

    <!-- Glow effect -->
    <filter id="glow">
      <feGaussianBlur stdDeviation="3" result="coloredBlur"/>
      <feMerge>
        <feMergeNode in="coloredBlur"/>
        <feMergeNode in="SourceGraphic"/>
      </feMerge>
    </filter>

    <!-- Texture pattern for metallic effect -->
    <pattern id="metalTexture" x="0" y="0" width="4" height="4" patternUnits="userSpaceOnUse">
      <rect width="4" height="4" fill="#8B4513" opacity="0.1"/>
      <circle cx="2" cy="2" r="0.5" fill="#CD853F" opacity="0.2"/>
    </pattern>

    <!-- Original shadow filter from your logo -->
    <filter id="shadow2">
      <feDropShadow dx="0" dy="0" stdDeviation="0.5"
          flood-color="cyan"/>
    </filter>

    <!-- Circular path for curved text -->
    <path id="textCircle" d="M 200,52 A 148,148 0 0,1 200,348 A 148,148 0 0,1 200,52" fill="none"/>
  </defs>

  <!-- Remove subtle textured background overlay for full transparency -->

  <!-- Outer gear/cog ring (hollow center) -->
  <g transform="translate(200, 200)">
    <!-- Gear teeth - larger trapezoid shapes that connect to the rim -->
    <g fill="url(#metalGradient)" stroke="url(#darkMetalGradient)" stroke-width="0.5" filter="url(#metalShadow)">
      <!-- Create 20 larger gear teeth around the circle -->
      <path d="M -10,-179 L -15,-195 L 15,-195 L 10,-179 Z" transform="rotate(0)"/>
      <path d="M -10,-179 L -15,-195 L 15,-195 L 10,-179 Z" transform="rotate(18)"/>
      <path d="M -10,-179 L -15,-195 L 15,-195 L 10,-179 Z" transform="rotate(36)"/>
      <path d="M -10,-179 L -15,-195 L 15,-195 L 10,-179 Z" transform="rotate(54)"/>
      <path d="M -10,-179 L -15,-195 L 15,-195 L 10,-179 Z" transform="rotate(72)"/>
      <path d="M -10,-179 L -15,-195 L 15,-195 L 10,-179 Z" transform="rotate(90)"/>
      <path d="M -10,-179 L -15,-195 L 15,-195 L 10,-179 Z" transform="rotate(108)"/>
      <path d="M -10,-179 L -15,-195 L 15,-195 L 10,-179 Z" transform="rotate(126)"/>
      <path d="M -10,-179 L -15,-195 L 15,-195 L 10,-179 Z" transform="rotate(144)"/>
      <path d="M -10,-179 L -15,-195 L 15,-195 L 10,-179 Z" transform="rotate(162)"/>
      <path d="M -10,-179 L -15,-195 L 15,-195 L 10,-179 Z" transform="rotate(180)"/>
      <path d="M -10,-179 L -15,-195 L 15,-195 L 10,-179 Z" transform="rotate(198)"/>
      <path d="M -10,-179 L -15,-195 L 15,-195 L 10,-179 Z" transform="rotate(216)"/>
      <path d="M -10,-179 L -15,-195 L 15,-195 L 10,-179 Z" transform="rotate(234)"/>
      <path d="M -10,-179 L -15,-195 L 15,-195 L 10,-179 Z" transform="rotate(252)"/>
      <path d="M -10,-179 L -15,-195 L 15,-195 L 10,-179 Z" transform="rotate(270)"/>
      <path d="M -10,-179 L -15,-195 L 15,-195 L 10,-179 Z" transform="rotate(288)"/>
      <path d="M -10,-179 L -15,-195 L 15,-195 L 10,-179 Z" transform="rotate(306)"/>
      <path d="M -10,-179 L -15,-195 L 15,-195 L 10,-179 Z" transform="rotate(324)"/>
      <path d="M -10,-179 L -15,-195 L 15,-195 L 10,-179 Z" transform="rotate(342)"/>
    </g>

    <!-- Outer gear rim ring -->
    <circle cx="0" cy="0" r="183"
            fill="none"
            stroke="url(#darkMetalGradient)"
            stroke-width="1"
            opacity="0.7"/>

    <!-- Main gear rim (thick ring, no fill) -->
    <circle cx="0" cy="0" r="175"
            fill="none"
            stroke="url(#ringGradient)"
            stroke-width="10"
            filter="url(#metalShadow)"/>

    <!-- Inner edge of gear rim -->
    <circle cx="0" cy="0" r="165"
            fill="none"
            stroke="url(#darkMetalGradient)"
            stroke-width="2"
            opacity="0.8"/>

    <!-- Inner highlight -->
    <circle cx="0" cy="0" r="162"
            fill="none"
            stroke="url(#metalGradient)"
            stroke-width="0.5"
            opacity="0.6"/>
  </g>

  <!-- Decorative rivets for steampunk aesthetic on the gear rim -->
  <g transform="translate(200, 200)">
    <!-- Rivets positioned between each pair of gear teeth (every 36 degrees) -->
    <g transform="rotate(9)">
      <circle cx="0" cy="-171" r="2.5" fill="url(#darkMetalGradient)" filter="url(#metalShadow)"/>
      <circle cx="0" cy="-171" r="1" fill="url(#metalGradient)"/>
    </g>
    <g transform="rotate(27)">
      <circle cx="0" cy="-171" r="2.5" fill="url(#darkMetalGradient)" filter="url(#metalShadow)"/>
      <circle cx="0" cy="-171" r="1" fill="url(#metalGradient)"/>
    </g>
    <g transform="rotate(45)">
      <circle cx="0" cy="-171" r="2.5" fill="url(#darkMetalGradient)" filter="url(#metalShadow)"/>
      <circle cx="0" cy="-171" r="1" fill="url(#metalGradient)"/>
    </g>
    <g transform="rotate(63)">
      <circle cx="0" cy="-171" r="2.5" fill="url(#darkMetalGradient)" filter="url(#metalShadow)"/>
      <circle cx="0" cy="-171" r="1" fill="url(#metalGradient)"/>
    </g>
    <g transform="rotate(81)">
      <circle cx="0" cy="-171" r="2.5" fill="url(#darkMetalGradient)" filter="url(#metalShadow)"/>
      <circle cx="0" cy="-171" r="1" fill="url(#metalGradient)"/>
    </g>
    <g transform="rotate(99)">
      <circle cx="0" cy="-171" r="2.5" fill="url(#darkMetalGradient)" filter="url(#metalShadow)"/>
      <circle cx="0" cy="-171" r="1" fill="url(#metalGradient)"/>
    </g>
    <g transform="rotate(117)">
      <circle cx="0" cy="-171" r="2.5" fill="url(#darkMetalGradient)" filter="url(#metalShadow)"/>
      <circle cx="0" cy="-171" r="1" fill="url(#metalGradient)"/>
    </g>
    <g transform="rotate(135)">
      <circle cx="0" cy="-171" r="2.5" fill="url(#darkMetalGradient)" filter="url(#metalShadow)"/>
      <circle cx="0" cy="-171" r="1" fill="url(#metalGradient)"/>
    </g>
    <g transform="rotate(153)">
      <circle cx="0" cy="-171" r="2.5" fill="url(#darkMetalGradient)" filter="url(#metalShadow)"/>
      <circle cx="0" cy="-171" r="1" fill="url(#metalGradient)"/>
    </g>
    <g transform="rotate(171)">
      <circle cx="0" cy="-171" r="2.5" fill="url(#darkMetalGradient)" filter="url(#metalShadow)"/>
      <circle cx="0" cy="-171" r="1" fill="url(#metalGradient)"/>
    </g>
    <g transform="rotate(189)">
      <circle cx="0" cy="-171" r="2.5" fill="url(#darkMetalGradient)" filter="url(#metalShadow)"/>
      <circle cx="0" cy="-171" r="1" fill="url(#metalGradient)"/>
    </g>
    <g transform="rotate(207)">
      <circle cx="0" cy="-171" r="2.5" fill="url(#darkMetalGradient)" filter="url(#metalShadow)"/>
      <circle cx="0" cy="-171" r="1" fill="url(#metalGradient)"/>
    </g>
    <g transform="rotate(225)">
      <circle cx="0" cy="-171" r="2.5" fill="url(#darkMetalGradient)" filter="url(#metalShadow)"/>
      <circle cx="0" cy="-171" r="1" fill="url(#metalGradient)"/>
    </g>
    <g transform="rotate(243)">
      <circle cx="0" cy="-171" r="2.5" fill="url(#darkMetalGradient)" filter="url(#metalShadow)"/>
      <circle cx="0" cy="-171" r="1" fill="url(#metalGradient)"/>
    </g>
    <g transform="rotate(261)">
      <circle cx="0" cy="-171" r="2.5" fill="url(#darkMetalGradient)" filter="url(#metalShadow)"/>
      <circle cx="0" cy="-171" r="1" fill="url(#metalGradient)"/>
    </g>
    <g transform="rotate(279)">
      <circle cx="0" cy="-171" r="2.5" fill="url(#darkMetalGradient)" filter="url(#metalShadow)"/>
      <circle cx="0" cy="-171" r="1" fill="url(#metalGradient)"/>
    </g>
    <g transform="rotate(297)">
      <circle cx="0" cy="-171" r="2.5" fill="url(#darkMetalGradient)" filter="url(#metalShadow)"/>
      <circle cx="0" cy="-171" r="1" fill="url(#metalGradient)"/>
    </g>
    <g transform="rotate(315)">
      <circle cx="0" cy="-171" r="2.5" fill="url(#darkMetalGradient)" filter="url(#metalShadow)"/>
      <circle cx="0" cy="-171" r="1" fill="url(#metalGradient)"/>
    </g>
    <g transform="rotate(333)">
      <circle cx="0" cy="-171" r="2.5" fill="url(#darkMetalGradient)" filter="url(#metalShadow)"/>
      <circle cx="0" cy="-171" r="1" fill="url(#metalGradient)"/>
    </g>
    <g transform="rotate(351)">
      <circle cx="0" cy="-171" r="2.5" fill="url(#darkMetalGradient)" filter="url(#metalShadow)"/>
      <circle cx="0" cy="-171" r="1" fill="url(#metalGradient)"/>
    </g>
  </g>

  <!-- TurtleWolfe.com curved text along the inner ring -->
  <!-- Circumference = 2 * pi * 148 ≈ 930 -->
  <text fill="url(#metalGradient)" filter="url(#metalShadow)"
        font-family="'Georgia', 'Times New Roman', serif" font-size="22" font-weight="bold">
    <textPath href="#textCircle" textLength="925" lengthAdjust="spacing">&#x2022; TurtleWolfe.com &#x2022; TurtleWolfe.com &#x2022; TurtleWolfe.com </textPath>
  </text>

  <!-- Optional: Add rotating animation class -->
  <style>
    @keyframes rotate {
      from {
        transform: rotate(0deg);
      }
      to {
        transform: rotate(360deg);
      }
    }

    /* Uncomment to enable rotation */
    /* svg {
      animation: rotate 20s linear infinite;
    } */
  </style>
</svg>
