<?xml version="1.0" encoding="UTF-8"?>
<svg xmlns="http://www.w3.org/2000/svg" viewBox="0 0 1920 1080" width="1920" height="1080">
  <title>010 Unified Blog Content - Conflict Resolution</title>

  <!-- Background Gradient G-022 -->
  <defs>
    <linearGradient id="bg" x1="0%" y1="0%" x2="0%" y2="100%">
      <stop offset="0%" stop-color="#c7ddf5"/>
      <stop offset="100%" stop-color="#b8d4f0"/>
    </linearGradient>
  </defs>
  <rect width="1920" height="1080" fill="url(#bg)"/>

  <!-- Wireframe Title -->
  <text x="960" y="28" text-anchor="middle" font-family="system-ui, sans-serif" font-size="20" font-weight="bold" fill="#1a1a2e">010 Unified Blog Content - Conflict Resolution</text>

  <!-- Hidden Includes for HDR-001 Compliance -->
  <g id="include-compliance" opacity="0" transform="translate(-9999, -9999)">
    <use href="includes/header-desktop.svg#desktop-header" x="0" y="0"/>
    <use href="includes/footer-desktop.svg#site-footer" x="0" y="0"/>
    <use href="includes/header-mobile.svg#mobile-header-group" x="0" y="0"/>
    <use href="includes/footer-mobile.svg#mobile-bottom-nav" x="0" y="0"/>
  </g>

  <!-- DESKTOP (16:9) -->
  <text x="40" y="52" font-family="system-ui, sans-serif" font-size="14" font-weight="bold" fill="#1a1a2e">DESKTOP (16:9)</text>
  <g transform="translate(40, 60)">
    <!-- Browser Chrome -->
    <rect width="1280" height="720" rx="8" fill="#2d2d44"/>
    <rect width="1280" height="32" rx="8" fill="#3d3d5c"/>
    <circle cx="16" cy="16" r="6" fill="#ef4444"/>
    <circle cx="36" cy="16" r="6" fill="#f59e0b"/>
    <circle cx="56" cy="16" r="6" fill="#22c55e"/>
    <rect x="80" y="8" width="400" height="16" rx="4" fill="#1a1a2e"/>
    <text x="280" y="20" text-anchor="middle" font-family="system-ui, sans-serif" font-size="14" fill="#9ca3af">scripthammer.dev/blog/merge</text>

    <!-- Header Bar -->
    <rect x="0" y="32" width="1280" height="48" fill="#e8d4b8"/>
    <text x="20" y="62" font-family="system-ui, sans-serif" font-size="16" font-weight="bold" fill="#1a1a2e">Conflict Resolution</text>

    <!-- Conflict Alert Badge -->
    <g transform="translate(200, 46)">
      <rect x="0" y="0" width="140" height="24" rx="4" fill="#ef4444"/>
      <text x="70" y="16" text-anchor="middle" font-family="system-ui, sans-serif" font-size="14" font-weight="bold" fill="#faf8f5">2 Conflicts Found</text>
    </g>

    <!-- Callout 1: Three-Way Merge Panel -->
    <circle cx="100" cy="120" r="16" fill="#dc2626"/>
    <text x="100" y="125" text-anchor="middle" font-family="system-ui, sans-serif" font-size="14" font-weight="bold" fill="#faf8f5">1</text>

    <!-- Three-Way Merge Container -->
    <rect x="10" y="90" width="1260" height="400" rx="4" fill="#f5f0e6"/>

    <!-- Column Headers -->
    <rect x="10" y="90" width="1260" height="36" fill="#dcc8a8"/>
    <text x="170" y="114" text-anchor="middle" font-family="system-ui, sans-serif" font-size="14" font-weight="bold" fill="#1a1a2e">LOCAL (Your Changes)</text>
    <text x="640" y="114" text-anchor="middle" font-family="system-ui, sans-serif" font-size="14" font-weight="bold" fill="#1a1a2e">BASE (Original)</text>
    <text x="1110" y="114" text-anchor="middle" font-family="system-ui, sans-serif" font-size="14" font-weight="bold" fill="#1a1a2e">REMOTE (Their Changes)</text>

    <!-- Local Panel -->
    <rect x="20" y="136" width="400" height="340" rx="4" fill="#faf8f5" stroke="#22c55e" stroke-width="2"/>
    <rect x="20" y="136" width="400" height="30" fill="#22c55e" rx="4"/>
    <text x="30" y="156" font-family="monospace" font-size="14" fill="#faf8f5">Your version</text>

    <!-- Local Content -->
    <text x="30" y="186" font-family="monospace" font-size="14" fill="#1a1a2e"># Getting Started</text>
    <text x="30" y="210" font-family="monospace" font-size="14" fill="#1a1a2e">Welcome to **ScriptHammer**!</text>
    <rect x="30" y="220" width="380" height="60" rx="4" fill="#dcfce7"/>
    <text x="40" y="245" font-family="monospace" font-size="14" fill="#166534">+ This guide covers advanced</text>
    <text x="40" y="265" font-family="monospace" font-size="14" fill="#166534">+ features and best practices.</text>
    <text x="30" y="310" font-family="monospace" font-size="14" fill="#1a1a2e">## Installation</text>
    <text x="30" y="334" font-family="monospace" font-size="14" fill="#1a1a2e">Run the following command:</text>

    <!-- Accept Local Button -->
    <rect x="280" y="420" width="130" height="36" rx="4" fill="#22c55e"/>
    <text x="345" y="443" text-anchor="middle" font-family="system-ui, sans-serif" font-size="14" font-weight="bold" fill="#faf8f5">Accept Local</text>

    <!-- Base Panel -->
    <rect x="440" y="136" width="400" height="340" rx="4" fill="#faf8f5" stroke="#6b7280" stroke-width="2"/>
    <rect x="440" y="136" width="400" height="30" fill="#374151" rx="4"/>
    <text x="450" y="156" font-family="monospace" font-size="14" fill="#faf8f5">Original version</text>

    <!-- Base Content -->
    <text x="450" y="186" font-family="monospace" font-size="14" fill="#1a1a2e"># Getting Started</text>
    <text x="450" y="210" font-family="monospace" font-size="14" fill="#1a1a2e">Welcome to **ScriptHammer**!</text>
    <text x="450" y="240" font-family="monospace" font-size="14" fill="#374151">(No content here)</text>
    <text x="450" y="310" font-family="monospace" font-size="14" fill="#1a1a2e">## Installation</text>
    <text x="450" y="334" font-family="monospace" font-size="14" fill="#1a1a2e">Run the following command:</text>

    <!-- Remote Panel -->
    <rect x="860" y="136" width="400" height="340" rx="4" fill="#faf8f5" stroke="#3b82f6" stroke-width="2"/>
    <rect x="860" y="136" width="400" height="30" fill="#3b82f6" rx="4"/>
    <text x="870" y="156" font-family="monospace" font-size="14" fill="#faf8f5">Remote version</text>

    <!-- Remote Content -->
    <text x="870" y="186" font-family="monospace" font-size="14" fill="#1a1a2e"># Getting Started</text>
    <text x="870" y="210" font-family="monospace" font-size="14" fill="#1a1a2e">Welcome to **ScriptHammer**!</text>
    <rect x="870" y="220" width="380" height="60" rx="4" fill="#dbeafe"/>
    <text x="880" y="245" font-family="monospace" font-size="14" fill="#1e40af">+ Quick start guide for new</text>
    <text x="880" y="265" font-family="monospace" font-size="14" fill="#1e40af">+ developers joining the team.</text>
    <text x="870" y="310" font-family="monospace" font-size="14" fill="#1a1a2e">## Installation</text>
    <text x="870" y="334" font-family="monospace" font-size="14" fill="#1a1a2e">Run the following command:</text>

    <!-- Accept Remote Button -->
    <rect x="870" y="420" width="130" height="36" rx="4" fill="#3b82f6"/>
    <text x="935" y="443" text-anchor="middle" font-family="system-ui, sans-serif" font-size="14" font-weight="bold" fill="#faf8f5">Accept Remote</text>

    <!-- Accept Both Button -->
    <rect x="1020" y="420" width="130" height="36" rx="4" fill="#8b5cf6"/>
    <text x="1085" y="443" text-anchor="middle" font-family="system-ui, sans-serif" font-size="14" font-weight="bold" fill="#faf8f5">Accept Both</text>

    <!-- Callout 2: Migration Status -->
    <circle cx="200" cy="530" r="16" fill="#dc2626"/>
    <text x="200" y="535" text-anchor="middle" font-family="system-ui, sans-serif" font-size="14" font-weight="bold" fill="#faf8f5">2</text>

    <!-- Migration Status Panel -->
    <rect x="10" y="500" width="620" height="160" rx="4" fill="#f5f0e6"/>
    <rect x="10" y="500" width="620" height="32" fill="#dcc8a8"/>
    <text x="30" y="522" font-family="system-ui, sans-serif" font-size="14" font-weight="bold" fill="#1a1a2e">Migration Status</text>

    <!-- Migration Progress -->
    <text x="30" y="560" font-family="system-ui, sans-serif" font-size="14" fill="#1a1a2e">Content migrated: 42 of 45 posts</text>
    <rect x="30" y="575" width="580" height="12" rx="4" fill="#dcc8a8"/>
    <rect x="30" y="575" width="540" height="12" rx="4" fill="#22c55e"/>
    <text x="30" y="610" font-family="system-ui, sans-serif" font-size="14" fill="#22c55e">93% complete</text>

    <!-- URL Preservation Status -->
    <g transform="translate(30, 620)">
      <circle cx="8" cy="8" r="8" fill="#22c55e"/>
      <text x="24" y="12" font-family="system-ui, sans-serif" font-size="14" fill="#1a1a2e">URL slugs preserved</text>
    </g>
    <g transform="translate(230, 620)">
      <circle cx="8" cy="8" r="8" fill="#22c55e"/>
      <text x="24" y="12" font-family="system-ui, sans-serif" font-size="14" fill="#1a1a2e">Metadata intact</text>
    </g>
    <g transform="translate(430, 620)">
      <circle cx="8" cy="8" r="8" fill="#f59e0b"/>
      <text x="24" y="12" font-family="system-ui, sans-serif" font-size="14" fill="#1a1a2e">3 warnings</text>
    </g>

    <!-- Callout 3: Resolution Preview -->
    <circle cx="850" cy="530" r="16" fill="#dc2626"/>
    <text x="850" y="535" text-anchor="middle" font-family="system-ui, sans-serif" font-size="14" font-weight="bold" fill="#faf8f5">3</text>

    <!-- Resolution Preview Panel -->
    <rect x="650" y="500" width="620" height="160" rx="4" fill="#f5f0e6"/>
    <rect x="650" y="500" width="620" height="32" fill="#dcc8a8"/>
    <text x="670" y="522" font-family="system-ui, sans-serif" font-size="14" font-weight="bold" fill="#1a1a2e">Resolution Preview</text>

    <!-- Preview Content -->
    <rect x="660" y="542" width="600" height="108" rx="4" fill="#faf8f5"/>
    <text x="670" y="565" font-family="monospace" font-size="14" fill="#1a1a2e"># Getting Started</text>
    <text x="670" y="588" font-family="monospace" font-size="14" fill="#1a1a2e">Welcome to **ScriptHammer**!</text>
    <text x="670" y="611" font-family="monospace" font-size="14" fill="#166534">This guide covers advanced features</text>
    <text x="670" y="634" font-family="monospace" font-size="14" fill="#166534">and best practices.</text>

    <!-- Callout 4: Action Buttons -->
    <circle cx="640" cy="695" r="16" fill="#dc2626"/>
    <text x="640" y="700" text-anchor="middle" font-family="system-ui, sans-serif" font-size="14" font-weight="bold" fill="#faf8f5">4</text>

    <!-- Status Bar -->
    <rect x="0" y="670" width="1280" height="50" fill="#dcc8a8" rx="8"/>
    <rect x="20" y="682" width="140" height="28" rx="4" fill="#374151"/>
    <text x="90" y="701" text-anchor="middle" font-family="system-ui, sans-serif" font-size="14" fill="#faf8f5">Cancel</text>
    <rect x="180" y="682" width="200" height="28" rx="4" fill="#22c55e"/>
    <text x="280" y="701" text-anchor="middle" font-family="system-ui, sans-serif" font-size="14" font-weight="bold" fill="#faf8f5">Save Resolution</text>
    <text x="1100" y="701" font-family="system-ui, sans-serif" font-size="14" fill="#1a1a2e">1 of 2 conflicts resolved</text>
  </g>

  <!-- MOBILE MOCKUP -->
  <g transform="translate(1360, 60)">
    <!-- Phone Frame -->
    <rect width="360" height="720" rx="24" fill="#2d2d44"/>
    <rect x="10" y="10" width="340" height="700" rx="16" fill="#e8d4b8"/>

    <!-- Status Bar -->
    <rect x="10" y="10" width="340" height="44" rx="16" fill="#dcc8a8"/>
    <text x="30" y="38" font-family="system-ui, sans-serif" font-size="14" fill="#1a1a2e">9:41</text>
    <text x="300" y="38" font-family="system-ui, sans-serif" font-size="14" fill="#1a1a2e">100%</text>

    <!-- Header -->
    <rect x="10" y="54" width="340" height="56" fill="#f5f0e6"/>
    <text x="30" y="90" font-family="system-ui, sans-serif" font-size="18" font-weight="bold" fill="#1a1a2e">Sync Conflict</text>

    <!-- Conflict Alert Card -->
    <rect x="20" y="120" width="320" height="300" rx="8" fill="#faf8f5"/>

    <!-- Warning Icon -->
    <circle cx="180" cy="180" r="40" fill="#fef3c7"/>
    <text x="180" y="195" text-anchor="middle" font-family="system-ui, sans-serif" font-size="36" fill="#f59e0b">!</text>

    <!-- Alert Message -->
    <text x="180" y="250" text-anchor="middle" font-family="system-ui, sans-serif" font-size="18" font-weight="bold" fill="#1a1a2e">Content Conflict Detected</text>
    <text x="180" y="280" text-anchor="middle" font-family="system-ui, sans-serif" font-size="14" fill="#374151">Your local changes conflict with</text>
    <text x="180" y="300" text-anchor="middle" font-family="system-ui, sans-serif" font-size="14" fill="#374151">remote updates.</text>

    <!-- Resolve Options -->
    <rect x="40" y="330" width="280" height="44" rx="8" fill="#3b82f6"/>
    <text x="180" y="357" text-anchor="middle" font-family="system-ui, sans-serif" font-size="14" font-weight="bold" fill="#faf8f5">Resolve on Desktop</text>

    <rect x="40" y="384" width="280" height="44" rx="8" fill="#374151"/>
    <text x="180" y="411" text-anchor="middle" font-family="system-ui, sans-serif" font-size="14" font-weight="bold" fill="#faf8f5">Keep My Version</text>

    <!-- Affected Files -->
    <rect x="20" y="440" width="320" height="180" rx="8" fill="#faf8f5"/>
    <text x="35" y="468" font-family="system-ui, sans-serif" font-size="14" font-weight="bold" fill="#1a1a2e">Affected Files</text>

    <rect x="35" y="480" width="290" height="44" rx="4" fill="#fef3c7"/>
    <text x="50" y="508" font-family="system-ui, sans-serif" font-size="14" fill="#1a1a2e">getting-started.mdx</text>

    <rect x="35" y="534" width="290" height="44" rx="4" fill="#fef3c7"/>
    <text x="50" y="562" font-family="system-ui, sans-serif" font-size="14" fill="#1a1a2e">installation-guide.mdx</text>

    <!-- Bottom Navigation -->
    <rect x="10" y="660" width="340" height="50" fill="#f5f0e6" rx="16"/>
    <g transform="translate(60, 675)">
      <text x="0" y="20" font-family="system-ui, sans-serif" font-size="14" fill="#374151">Home</text>
    </g>
    <g transform="translate(160, 675)">
      <text x="0" y="20" font-family="system-ui, sans-serif" font-size="14" fill="#374151">Blog</text>
    </g>
    <g transform="translate(250, 675)">
      <text x="0" y="20" font-family="system-ui, sans-serif" font-size="14" fill="#374151">Profile</text>
    </g>
  </g>

  <!-- ANNOTATION PANEL -->
  <g id="annotations" transform="translate(40, 800)">
    <rect width="1840" height="220" rx="8" fill="#f5f0e6"/>

    <!-- Column 1: US-003 Conflict Resolution -->
    <g transform="translate(20, 20)">
      <circle cx="10" cy="8" r="12" fill="#dc2626"/>
      <text x="10" y="13" text-anchor="middle" font-family="system-ui, sans-serif" font-size="14" font-weight="bold" fill="#faf8f5">1</text>
      <text x="30" y="14" font-family="system-ui, sans-serif" font-size="16" font-weight="bold" fill="#1a1a2e">Three-Way Merge</text>
      <a href="#US-003"><rect x="0" y="24" width="70" height="22" rx="4" fill="#8b5cf6"/><text x="35" y="40" text-anchor="middle" font-family="system-ui, sans-serif" font-size="14" font-weight="600" fill="#faf8f5">US-003</text></a>
      <text x="0" y="70" font-family="system-ui, sans-serif" font-size="14" fill="#4b5563">Side-by-side comparison of</text>
      <text x="0" y="88" font-family="system-ui, sans-serif" font-size="14" fill="#4b5563">Local, Base, and Remote</text>
      <text x="0" y="106" font-family="system-ui, sans-serif" font-size="14" fill="#4b5563">versions for conflict resolution.</text>
      <a href="#FR-017"><rect x="0" y="116" width="60" height="20" rx="4" fill="#2563eb"/><text x="30" y="130" text-anchor="middle" font-family="system-ui, sans-serif" font-size="14" font-weight="600" fill="#faf8f5">FR-017</text></a>
      <a href="#FR-018"><rect x="70" y="116" width="60" height="20" rx="4" fill="#2563eb"/><text x="100" y="130" text-anchor="middle" font-family="system-ui, sans-serif" font-size="14" font-weight="600" fill="#faf8f5">FR-018</text></a>
      <a href="#SC-008"><rect x="140" y="116" width="60" height="20" rx="4" fill="#059669"/><text x="170" y="130" text-anchor="middle" font-family="system-ui, sans-serif" font-size="14" font-weight="600" fill="#faf8f5">SC-008</text></a>
      <text x="0" y="160" font-family="system-ui, sans-serif" font-size="14" fill="#4b5563">Visual diff highlighting with</text>
      <text x="0" y="178" font-family="system-ui, sans-serif" font-size="14" fill="#4b5563">accept/reject for each hunk.</text>
    </g>

    <!-- Column 2: US-004 Migration Status -->
    <g transform="translate(480, 20)">
      <circle cx="10" cy="8" r="12" fill="#dc2626"/>
      <text x="10" y="13" text-anchor="middle" font-family="system-ui, sans-serif" font-size="14" font-weight="bold" fill="#faf8f5">2</text>
      <text x="30" y="14" font-family="system-ui, sans-serif" font-size="16" font-weight="bold" fill="#1a1a2e">Migration Status</text>
      <a href="#US-004"><rect x="0" y="24" width="70" height="22" rx="4" fill="#8b5cf6"/><text x="35" y="40" text-anchor="middle" font-family="system-ui, sans-serif" font-size="14" font-weight="600" fill="#faf8f5">US-004</text></a>
      <text x="0" y="70" font-family="system-ui, sans-serif" font-size="14" fill="#4b5563">Track content migration from</text>
      <text x="0" y="88" font-family="system-ui, sans-serif" font-size="14" fill="#4b5563">legacy CMS. URL slugs and</text>
      <text x="0" y="106" font-family="system-ui, sans-serif" font-size="14" fill="#4b5563">metadata preservation.</text>
      <a href="#FR-019"><rect x="0" y="116" width="60" height="20" rx="4" fill="#2563eb"/><text x="30" y="130" text-anchor="middle" font-family="system-ui, sans-serif" font-size="14" font-weight="600" fill="#faf8f5">FR-019</text></a>
      <a href="#FR-020"><rect x="70" y="116" width="60" height="20" rx="4" fill="#2563eb"/><text x="100" y="130" text-anchor="middle" font-family="system-ui, sans-serif" font-size="14" font-weight="600" fill="#faf8f5">FR-020</text></a>
      <text x="0" y="160" font-family="system-ui, sans-serif" font-size="14" fill="#4b5563">Progress bar and validation</text>
      <text x="0" y="178" font-family="system-ui, sans-serif" font-size="14" fill="#4b5563">status for migrated content.</text>
    </g>

    <!-- Column 3: Resolution Preview -->
    <g transform="translate(940, 20)">
      <circle cx="10" cy="8" r="12" fill="#dc2626"/>
      <text x="10" y="13" text-anchor="middle" font-family="system-ui, sans-serif" font-size="14" font-weight="bold" fill="#faf8f5">3</text>
      <text x="30" y="14" font-family="system-ui, sans-serif" font-size="16" font-weight="bold" fill="#1a1a2e">Resolution Preview</text>
      <a href="#US-002"><rect x="0" y="24" width="70" height="22" rx="4" fill="#8b5cf6"/><text x="35" y="40" text-anchor="middle" font-family="system-ui, sans-serif" font-size="14" font-weight="600" fill="#faf8f5">US-002</text></a>
      <text x="0" y="70" font-family="system-ui, sans-serif" font-size="14" fill="#4b5563">Live preview of merged result</text>
      <text x="0" y="88" font-family="system-ui, sans-serif" font-size="14" fill="#4b5563">before committing. Shows how</text>
      <text x="0" y="106" font-family="system-ui, sans-serif" font-size="14" fill="#4b5563">final content will appear.</text>
      <text x="0" y="140" font-family="system-ui, sans-serif" font-size="14" fill="#4b5563">Syntax highlighting applied</text>
      <text x="0" y="158" font-family="system-ui, sans-serif" font-size="14" fill="#4b5563">to added/removed content.</text>
      <text x="0" y="178" font-family="system-ui, sans-serif" font-size="14" fill="#4b5563">Undo available before save.</text>
    </g>

    <!-- Column 4: Action Buttons -->
    <g transform="translate(1400, 20)">
      <circle cx="10" cy="8" r="12" fill="#dc2626"/>
      <text x="10" y="13" text-anchor="middle" font-family="system-ui, sans-serif" font-size="14" font-weight="bold" fill="#faf8f5">4</text>
      <text x="30" y="14" font-family="system-ui, sans-serif" font-size="16" font-weight="bold" fill="#1a1a2e">Resolution Actions</text>
      <a href="#SC-008"><rect x="0" y="24" width="60" height="22" rx="4" fill="#059669"/><text x="30" y="40" text-anchor="middle" font-family="system-ui, sans-serif" font-size="14" font-weight="600" fill="#faf8f5">SC-008</text></a>
      <text x="0" y="70" font-family="system-ui, sans-serif" font-size="14" fill="#4b5563">Clear actions for each hunk:</text>
      <text x="0" y="88" font-family="system-ui, sans-serif" font-size="14" fill="#4b5563">- Accept Local (green)</text>
      <text x="0" y="106" font-family="system-ui, sans-serif" font-size="14" fill="#4b5563">- Accept Remote (blue)</text>
      <text x="0" y="124" font-family="system-ui, sans-serif" font-size="14" fill="#4b5563">- Accept Both (purple)</text>
      <text x="0" y="160" font-family="system-ui, sans-serif" font-size="14" fill="#4b5563">Progress indicator shows</text>
      <text x="0" y="178" font-family="system-ui, sans-serif" font-size="14" fill="#4b5563">remaining conflicts to resolve.</text>
    </g>
  </g>

  <!-- Key Concepts Row (G-047) -->
  <text x="40" y="940" font-family="system-ui, sans-serif" font-size="14" font-weight="bold" fill="#374151">Key Concepts:</text>
  <text x="140" y="940" font-family="system-ui, sans-serif" font-size="14" fill="#374151">MDX editor | conflict resolution | autosave | version history</text>

  <!-- Signature -->
  <text x="40" y="1060" font-family="system-ui, sans-serif" font-size="18" font-weight="bold" fill="#374151">010:02 | Unified Blog Content | ScriptHammer</text>
</svg>